<?xml version="1.0" encoding="iso-8859-1"?>
<!-- Generator: Adobe Illustrator 19.0.0, SVG Export Plug-In . SVG Version: 6.00 Build 0)  -->
<svg version="1.1" id="Layer_1" xmlns="http://www.w3.org/2000/svg" xmlns:xlink="http://www.w3.org/1999/xlink" x="0px" y="0px"
	 viewBox="0 0 512 512" style="enable-background:new 0 0 512 512;" xml:space="preserve">
<circle style="fill:#324A5E;" cx="256" cy="256" r="256"/>
<path style="fill:#2B3B4E;" d="M511.714,267.924L387.019,142.222L365.47,307.717l-110.618,3.448l-48.366-48.147l-48.459,44.699
	l24.08,74.25L307.372,506.84C420.366,483.823,506.282,386.374,511.714,267.924z"/>
<polygon style="fill:#FC6F58;" points="387.019,142.222 352.54,142.222 352.54,293.064 176.44,293.064 206.486,263.018 
	182.107,238.639 110.442,310.303 182.107,381.967 206.486,357.588 176.44,327.542 387.019,327.542 "/>
<polygon style="fill:#F1543F;" points="387.019,142.222 352.54,142.222 352.54,293.064 265.195,293.064 265.195,327.542 
	387.019,327.542 "/>
<g>
</g>
<g>
</g>
<g>
</g>
<g>
</g>
<g>
</g>
<g>
</g>
<g>
</g>
<g>
</g>
<g>
</g>
<g>
</g>
<g>
</g>
<g>
</g>
<g>
</g>
<g>
</g>
<g>
</g>
</svg>
