<?xml version="1.0" encoding="utf-8"?>
<!-- Generator: Adobe Illustrator 19.1.0, SVG Export Plug-In . SVG Version: 6.00 Build 0)  -->
<!DOCTYPE svg PUBLIC "-//W3C//DTD SVG 1.1//EN" "http://www.w3.org/Graphics/SVG/1.1/DTD/svg11.dtd">
<svg version="1.1" id="Layer_1" xmlns="http://www.w3.org/2000/svg" xmlns:xlink="http://www.w3.org/1999/xlink" x="0px" y="0px"
	 width="570px" height="370px" viewBox="0 0 570 370" enable-background="new 0 0 570 370" xml:space="preserve">
<rect x="58" y="63" fill="#444444" width="4" height="7"/>
<path fill="#444444" d="M69.7,59.3l-9-9c-0.4-0.4-1-0.4-1.4,0l-9,9c-0.4,0.4-0.4,1,0,1.4s1,0.4,1.4,0l0.3-0.3V69c0,0.6,0.4,1,1,1h3
	v-2h-2v-9.6l6-6l6,6V68h-2v2h3c0.6,0,1-0.4,1-1v-8.6l0.3,0.3c0.4,0.4,1,0.4,1.4,0C70.1,60.3,70.1,59.7,69.7,59.3z"/>
<path fill="#444444" d="M119,68h-18c-0.6,0-1-0.4-1-1V53c0-0.6,0.4-1,1-1h18c0.6,0,1,0.4,1,1v14C120,67.6,119.6,68,119,68z M102,66
	h16V54h-16V66z"/>
<path fill="#444444" d="M269,120h-18c-0.6,0-1-0.4-1-1v-14c0-0.6,0.4-1,1-1h18c0.6,0,1,0.4,1,1v14C270,119.6,269.6,120,269,120z
	 M252,118h16v-12h-16V118z"/>
<path fill="#444444" d="M268,170h-16c-0.6,0-1.1-0.6-1-1.2l2-12c0.1-0.5,0.5-0.8,1-0.8h12c0.5,0,0.9,0.4,1,0.8l2,12
	C269.1,169.4,268.6,170,268,170z M253.2,168h13.6l-1.7-10h-10.3L253.2,168z"/>
<path fill="#444444" d="M369,120h-18c-0.6,0-1-0.4-1-1v-11c0-0.6,0.4-1,1-1h18c0.6,0,1,0.4,1,1v11C370,119.6,369.6,120,369,120z
	 M352,118h16v-9h-16V118z"/>
<path fill="#444444" d="M269,270h-18c-0.6,0-1-0.4-1-1v-12c0-0.6,0.4-1,1-1h18c0.6,0,1,0.4,1,1v12C270,269.6,269.6,270,269,270z
	 M252,268h16v-10h-16V268z"/>
<path fill="#444444" d="M110,62c-0.2,0-0.4-0.1-0.6-0.2l-5-4c-0.4-0.3-0.5-1-0.2-1.4c0.3-0.4,1-0.5,1.4-0.2l4.4,3.5l4.4-3.5
	c0.4-0.3,1.1-0.3,1.4,0.2c0.3,0.4,0.3,1.1-0.2,1.4l-5,4C110.4,61.9,110.2,62,110,62z"/>
<path fill="#444444" d="M160,60L160,60c-2.2,0-4-1.8-4-4v-2c0-2.2,1.8-4,4-4l0,0c2.2,0,4,1.8,4,4v2C164,58.2,162.2,60,160,60z"/>
<path fill="#444444" d="M168,70h-16c-0.6,0-1-0.4-1-1v-1c0-3.3,2.7-6,6-6h6c3.3,0,6,2.7,6,6v1C169,69.6,168.6,70,168,70z M153,68h14
	c0-2.2-1.8-4-4-4h-6C154.8,64,153,65.8,153,68z"/>
<path fill="#444444" d="M215,70h-10c-1.7,0-3-1.3-3-3V53c0-1.7,1.3-3,3-3h10c1.7,0,3,1.3,3,3v14C218,68.7,216.7,70,215,70z M205,52
	c-0.6,0-1,0.4-1,1v14c0,0.6,0.4,1,1,1h10c0.6,0,1-0.4,1-1V53c0-0.6-0.4-1-1-1H205z"/>
<circle fill="#444444" cx="210" cy="64" r="2"/>
<circle fill="#444444" cx="210" cy="111" r="4"/>
<path fill="#444444" d="M269,55h-18c-0.6,0-1-0.4-1-1s0.4-1,1-1h18c0.6,0,1,0.4,1,1S269.6,55,269,55z"/>
<path fill="#444444" d="M260,61h-9c-0.6,0-1-0.4-1-1s0.4-1,1-1h9c0.6,0,1,0.4,1,1S260.6,61,260,61z"/>
<path fill="#444444" d="M269,67h-18c-0.6,0-1-0.4-1-1s0.4-1,1-1h18c0.6,0,1,0.4,1,1S269.6,67,269,67z"/>
<path fill="#444444" d="M317,70h-16c-0.6,0-1-0.4-1-1V53c0-0.6,0.4-1,1-1h9v2h-8v14h14v-8h2v9C318,69.6,317.6,70,317,70z"/>
<path fill="#444444" d="M309.3,60.7c-0.4-0.4-0.4-1,0-1.4l9-9c0.4-0.4,1-0.4,1.4,0s0.4,1,0,1.4l-9,9
	C310.3,61.1,309.7,61.1,309.3,60.7z"/>
<path fill="#444444" d="M367,70h-14c-0.6,0-1-0.4-1-1V51c0-0.6,0.4-1,1-1h10c0.3,0,0.5,0.1,0.7,0.3l4,4c0.2,0.2,0.3,0.4,0.3,0.7v14
	C368,69.6,367.6,70,367,70z M354,68h12V55.4l-3.4-3.4H354V68z"/>
<path fill="#444444" d="M364.7,56.3l-3-3c-0.3-0.3-0.7-0.4-1.1-0.2c-0.4,0.2-0.6,0.5-0.6,0.9v4h4c0.4,0,0.8-0.2,0.9-0.6
	C365.1,57,365,56.6,364.7,56.3z"/>
<path fill="#444444" d="M419,52h-3v-2h-2v2h-8v-2h-2v2h-3c-0.6,0-1,0.4-1,1v16c0,0.6,0.4,1,1,1h18c0.6,0,1-0.4,1-1V53
	C420,52.4,419.6,52,419,52z M418,68h-16V54h16V68z"/>
<path fill="#444444" d="M407.3,64.7l-2-2c-0.4-0.4-0.4-1,0-1.4s1-0.4,1.4,0l1.3,1.3l5.3-5.3c0.4-0.4,1-0.4,1.4,0s0.4,1,0,1.4l-6,6
	C408.3,65.1,407.7,65.1,407.3,64.7z"/>
<path fill="#444444" d="M469,69h-18c-0.6,0-1-0.4-1-1v-5h2v4h16v-4h2v5C470,68.6,469.6,69,469,69z"/>
<path fill="#444444" d="M465.7,57.3c-0.4-0.4-1-0.4-1.4,0l-3.3,3.3V52c0-0.6-0.4-1-1-1s-1,0.4-1,1v8.6l-3.3-3.3
	c-0.4-0.4-1-0.4-1.4,0s-0.4,1,0,1.4l5,5c0.4,0.4,1,0.4,1.4,0l5-5C466.1,58.3,466.1,57.7,465.7,57.3z"/>
<path fill="#444444" d="M519,69h-18c-0.6,0-1-0.4-1-1v-5h2v4h16v-4h2v5C520,68.6,519.6,69,519,69z"/>
<path fill="#444444" d="M515.7,56.3l-5-5c-0.4-0.4-1-0.4-1.4,0l-5,5c-0.4,0.4-0.4,1,0,1.4s1,0.4,1.4,0l3.3-3.3V63c0,0.6,0.4,1,1,1
	s1-0.4,1-1v-8.6l3.3,3.3c0.2,0.2,0.5,0.3,0.7,0.3s0.5-0.1,0.7-0.3C516.1,57.3,516.1,56.7,515.7,56.3z"/>
<path fill="#444444" d="M69,107c-0.6,0-1-0.4-1-1c0-2.2-1.8-4-4-4c-1.3,0-2.4,0.6-3.2,1.6c-0.4,0.5-1.2,0.5-1.6,0
	c-0.8-1-1.9-1.6-3.2-1.6c-2.2,0-4,1.8-4,4c0,0.6-0.4,1-1,1s-1-0.4-1-1c0-3.3,2.7-6,6-6c1.5,0,2.9,0.6,4,1.5c1.1-1,2.5-1.5,4-1.5
	c3.3,0,6,2.7,6,6C70,106.6,69.6,107,69,107z"/>
<path fill="#444444" d="M59.3,119.7c-0.1-0.1-3.2-2.8-5.7-6.1c-0.3-0.4-0.3-1.1,0.2-1.4c0.4-0.3,1.1-0.3,1.4,0.2
	c1.8,2.3,3.8,4.3,4.8,5.3c1-1,3.1-3,4.9-5.3c0.3-0.4,1-0.5,1.4-0.2c0.4,0.3,0.5,1,0.2,1.4c-2.6,3.3-5.6,6-5.8,6.1
	C60.3,120.1,59.7,120.1,59.3,119.7z"/>
<path fill="#444444" d="M61,114C61,114,61,114,61,114c-0.4,0-0.7-0.2-0.9-0.6l-2.2-4.5l-1,1.6c-0.2,0.3-0.5,0.4-0.8,0.4h-5
	c-0.6,0-1-0.4-1-1s0.4-1,1-1h4.5l1.7-2.6c0.2-0.3,0.5-0.5,0.9-0.4c0.4,0,0.7,0.2,0.8,0.6l2.2,4.5l1-1.6c0.2-0.3,0.5-0.4,0.8-0.4h6
	c0.6,0,1,0.4,1,1s-0.4,1-1,1h-5.5l-1.7,2.6C61.6,113.8,61.3,114,61,114z"/>
<path fill="#444444" d="M119,100h-6c-0.6,0-1,0.4-1,1s0.4,1,1,1h3.6l-4.3,4.3c-0.4,0.4-0.4,1,0,1.4c0.4,0.4,1,0.4,1.4,0l4.3-4.3v3.6
	c0,0.6,0.4,1,1,1s1-0.4,1-1v-6C120,100.4,119.6,100,119,100z"/>
<path fill="#444444" d="M108,101c0-0.6-0.4-1-1-1h-6c-0.5,0-1,0.5-1,1v6c0,0.6,0.4,1,1,1s1-0.4,1-1v-3.6l4.3,4.3
	c0.2,0.2,0.5,0.3,0.7,0.3s0.5-0.1,0.7-0.3c0.4-0.4,0.4-1,0-1.4l-4.3-4.3h3.6C107.6,102,108,101.6,108,101z"/>
<path fill="#444444" d="M120,113c0-0.6-0.4-1-1-1s-1,0.4-1,1v3.6l-4.3-4.3c-0.4-0.4-1-0.4-1.4,0s-0.4,1,0,1.4l4.3,4.3H113
	c-0.6,0-1,0.4-1,1s0.4,1,1,1h6c0.5,0,1-0.5,1-1V113z"/>
<path fill="#444444" d="M107,118h-3.6l4.3-4.3c0.4-0.4,0.4-1,0-1.4s-1-0.4-1.4,0l-4.3,4.3V113c0-0.6-0.4-1-1-1s-1,0.4-1,1v6
	c0,0.6,0.4,1,1,1h6c0.6,0,1-0.4,1-1S107.6,118,107,118z"/>
<path fill="#444444" d="M167,120h-14c-0.6,0-1-0.4-1-1v-5c0-0.6,0.4-1,1-1s1,0.4,1,1v4h12v-4c0-0.6,0.4-1,1-1s1,0.4,1,1v5
	C168,119.6,167.6,120,167,120z"/>
<path fill="#444444" d="M170,107c0-0.2-0.1-0.4-0.2-0.6l-4-6c-0.2-0.3-0.5-0.4-0.8-0.4h-10c-0.3,0-0.6,0.2-0.8,0.4l-4,6
	c-0.1,0.2-0.2,0.4-0.2,0.6c0,0,0,1.4,0,1.5c0,1.4,1.1,2.5,2.5,2.5c1.9,0,2.5-2,2.5-2c0.2,1.1,1.3,2,2.5,2c1.9,0,2.5-2,2.5-2
	c0.2,1.1,1.3,2,2.5,2c1.9,0,2.5-2,2.5-2c0.2,1.1,1.3,2,2.5,2c1.4,0,2.5-1.1,2.5-2.5C170,108.4,170,107,170,107z"/>
<path fill="#444444" d="M219,119h-18c-0.6,0-1-0.4-1-1v-13c0-0.6,0.4-1,1-1h3.6l2.7-2.7c0.2-0.2,0.4-0.3,0.7-0.3h4
	c0.3,0,0.5,0.1,0.7,0.3l2.7,2.7h3.6c0.6,0,1,0.4,1,1v13C220,118.6,219.6,119,219,119z M202,117h16v-11h-3c-0.3,0-0.5-0.1-0.7-0.3
	l-2.7-2.7h-3.2l-2.7,2.7c-0.2,0.2-0.4,0.3-0.7,0.3h-3V117z"/>
<path fill="#444444" d="M266,102h-12c-0.6,0-1-0.4-1-1s0.4-1,1-1h12c0.6,0,1,0.4,1,1S266.6,102,266,102z"/>
<path fill="#444444" d="M311,120h-2c-0.4,0-0.8-0.3-0.9-0.7l-0.9-2.6l-2.4,1.2c-0.4,0.2-0.8,0.1-1.2-0.2l-1.4-1.4
	c-0.3-0.3-0.4-0.8-0.2-1.2l1.2-2.4l-2.6-0.9c-0.4-0.1-0.7-0.5-0.7-0.9v-2c0-0.4,0.3-0.8,0.7-0.9l2.6-0.9l-1.2-2.4
	c-0.2-0.4-0.1-0.9,0.2-1.2l1.4-1.4c0.3-0.3,0.8-0.4,1.2-0.2l2.4,1.2l0.9-2.6c0.1-0.4,0.5-0.7,0.9-0.7h2c0.4,0,0.8,0.3,0.9,0.7
	l0.9,2.6l2.4-1.2c0.4-0.2,0.9-0.1,1.2,0.2l1.4,1.4c0.3,0.3,0.4,0.8,0.2,1.2l-1.2,2.4l2.6,0.9c0.4,0.1,0.7,0.5,0.7,0.9v2
	c0,0.4-0.3,0.8-0.7,0.9l-2.6,0.9l1.2,2.4c0.2,0.4,0.1,0.9-0.2,1.2l-1.4,1.4c-0.3,0.3-0.8,0.4-1.2,0.2l-2.4-1.2l-0.9,2.6
	C311.8,119.7,311.4,120,311,120z M309.7,118h0.6l0.9-2.7c0.2-0.6,1.2-1,1.7-0.7l2.6,1.3l0.4-0.4l-1.3-2.6c-0.3-0.6,0.1-1.5,0.7-1.7
	l2.7-0.9v-0.6l-2.7-0.9c-0.6-0.2-1-1.2-0.7-1.7l1.3-2.6l-0.4-0.4l-2.6,1.3c-0.6,0.3-1.5-0.1-1.7-0.7l-0.9-2.7h-0.6l-0.9,2.7
	c-0.2,0.6-1.2,1-1.7,0.7l-2.6-1.3l-0.4,0.4l1.3,2.6c0.3,0.6-0.1,1.5-0.7,1.7l-2.7,0.9v0.6l2.7,0.9c0.6,0.2,1,1.2,0.7,1.7l-1.3,2.6
	l0.4,0.4l2.6-1.3c0.6-0.3,1.5,0.1,1.7,0.7L309.7,118z"/>
<circle fill="#444444" cx="310" cy="110" r="2"/>
<path fill="#444444" d="M369,102h-8.1l-1-1.6c-0.2-0.3-0.5-0.4-0.8-0.4h-8c-0.6,0-1,0.4-1,1v3c0,0.6,0.4,1,1,1h18c0.6,0,1-0.4,1-1
	v-1C370,102.4,369.6,102,369,102z"/>
<path fill="#444444" d="M418,120h-16c-0.6,0-1-0.4-1-1s0.4-1,1-1h16c0.6,0,1,0.4,1,1S418.6,120,418,120z"/>
<path fill="#444444" d="M407,116h-4c-0.6,0-1-0.4-1-1v-4c0-0.3,0.1-0.5,0.3-0.7l10-10c0.4-0.4,1-0.4,1.4,0l4,4c0.4,0.4,0.4,1,0,1.4
	l-10,10C407.5,115.9,407.3,116,407,116z M404,114h2.6l9-9l-2.6-2.6l-9,9V114z"/>
<path fill="#444444" d="M458,109h-7c-0.6,0-1-0.4-1-1v-7c0-0.6,0.4-1,1-1h7c0.6,0,1,0.4,1,1v7C459,108.6,458.6,109,458,109z
	 M452,107h5v-5h-5V107z"/>
<path fill="#444444" d="M469,100h-7c-0.6,0-1,0.4-1,1v7c0,0.6,0.4,1,1,1h7c0.6,0,1-0.4,1-1v-7C470,100.4,469.6,100,469,100z"/>
<path fill="#444444" d="M458,111h-7c-0.6,0-1,0.4-1,1v7c0,0.6,0.4,1,1,1h7c0.6,0,1-0.4,1-1v-7C459,111.4,458.6,111,458,111z"/>
<path fill="#444444" d="M469,120h-7c-0.6,0-1-0.4-1-1v-7c0-0.6,0.4-1,1-1h7c0.6,0,1,0.4,1,1v7C470,119.6,469.6,120,469,120z
	 M463,118h5v-5h-5V118z"/>
<path fill="#444444" d="M509.7,119.9l-9-3c-0.4-0.1-0.7-0.5-0.7-0.9v-15c0-0.7,0.7-1.2,1.3-0.9l8.7,2.9l8.7-2.9
	c0.6-0.2,1.3,0.3,1.3,0.9v15c0,0.4-0.3,0.8-0.7,0.9l-9,3C510.1,120,509.9,120,509.7,119.9z M502,115.3l8,2.7l8-2.7v-12.9l-7.7,2.6
	c-0.2,0.1-0.4,0.1-0.6,0l-7.7-2.6V115.3z"/>
<path fill="#444444" d="M510,116c-0.6,0-1-0.4-1-1v-7c0-0.6,0.4-1,1-1s1,0.4,1,1v7C511,115.6,510.6,116,510,116z"/>
<path fill="#444444" d="M59.3,169.7c-0.7-0.8-7.3-7.5-7.3-11.7c0-4.4,3.6-8,8-8s8,3.6,8,8c0,4.2-6.5,10.9-7.3,11.7
	C60.3,170.1,59.7,170.1,59.3,169.7z M60,152c-3.3,0-6,2.7-6,6c0,2.5,3.8,7.2,6,9.5c2.2-2.3,6-7,6-9.5C66,154.7,63.3,152,60,152z"/>
<circle fill="#444444" cx="60" cy="158" r="2"/>
<path fill="#444444" d="M108,165c-3.9,0-7-3.1-7-7s3.1-7,7-7s7,3.1,7,7S111.9,165,108,165z M108,153c-2.8,0-5,2.2-5,5s2.2,5,5,5
	s5-2.2,5-5S110.8,153,108,153z"/>
<path fill="#444444" d="M117.3,168.7l-3-3c-0.4-0.4-0.4-1,0-1.4s1-0.4,1.4,0l3,3c0.4,0.4,0.4,1,0,1.4
	C118.3,169.1,117.7,169.1,117.3,168.7z"/>
<path fill="#444444" d="M159.3,169.7l-3.7-3.7H151c-0.6,0-1-0.4-1-1v-14c0-0.6,0.4-1,1-1h18c0.6,0,1,0.4,1,1v14c0,0.6-0.4,1-1,1
	h-4.6l-3.7,3.7C160.3,170.1,159.7,170.1,159.3,169.7z M152,164h4c0.3,0,0.5,0.1,0.7,0.3l3.3,3.3l3.3-3.3c0.2-0.2,0.4-0.3,0.7-0.3h4
	v-12h-16V164z"/>
<path fill="#444444" d="M164,157h-8c-0.6,0-1-0.4-1-1s0.4-1,1-1h8c0.6,0,1,0.4,1,1S164.6,157,164,157z"/>
<path fill="#444444" d="M164,161h-8c-0.6,0-1-0.4-1-1s0.4-1,1-1h8c0.6,0,1,0.4,1,1S164.6,161,164,161z"/>
<path fill="#444444" d="M203,156h-2c-0.6,0-1-0.4-1-1s0.4-1,1-1h2V156z"/>
<path fill="#444444" d="M219,156h-8v-2h8c0.6,0,1,0.4,1,1S219.6,156,219,156z"/>
<path fill="#444444" d="M208,151h-2c-0.6,0-1,0.4-1,1v6c0,0.6,0.4,1,1,1h2c0.6,0,1-0.4,1-1v-6C209,151.4,208.6,151,208,151z"/>
<path fill="#444444" d="M214,161h-2c-0.6,0-1,0.4-1,1v6c0,0.6,0.4,1,1,1h2c0.6,0,1-0.4,1-1v-6C215,161.4,214.6,161,214,161z"/>
<path fill="#444444" d="M219,166h-2v-2h2c0.6,0,1,0.4,1,1S219.6,166,219,166z"/>
<path fill="#444444" d="M209,166h-8c-0.6,0-1-0.4-1-1s0.4-1,1-1h8V166z"/>
<path fill="#444444" d="M264,155h-2v-1c0-1.1-0.9-2-2-2s-2,0.9-2,2v1h-2v-1c0-2.2,1.8-4,4-4s4,1.8,4,4V155z"/>
<path fill="#444444" d="M317,164h-13c-0.6,0-1-0.4-1-1v-11h-3v-2h4c0.6,0,1,0.4,1,1v11h11.2l1.5-6H307v-2h12c0.6,0,1.1,0.6,1,1.2
	l-2,8C317.9,163.7,317.5,164,317,164z"/>
<circle fill="#444444" cx="305" cy="168" r="2"/>
<circle fill="#444444" cx="260" cy="210" r="2"/>
<circle fill="#444444" cx="316" cy="168" r="2"/>
<path fill="#444444" d="M369,170h-18c-0.6,0-1-0.4-1-1v-18c0-0.6,0.4-1,1-1h18c0.6,0,1,0.4,1,1v18C370,169.6,369.6,170,369,170z
	 M352,168h16v-16h-16V168z"/>
<path fill="#444444" d="M353.3,165.7c-0.4-0.4-0.4-1,0-1.4l4-4c0.4-0.4,0.9-0.4,1.3-0.1l3.3,2.5l3.4-3.4c0.4-0.4,1-0.4,1.4,0
	s0.4,1,0,1.4l-4,4c-0.4,0.4-0.9,0.4-1.3,0.1l-3.3-2.5l-3.4,3.4C354.3,166.1,353.7,166.1,353.3,165.7z"/>
<circle fill="#444444" cx="361" cy="156" r="2"/>
<path fill="#444444" d="M413,164v-2c2.8,0,5-2.2,5-5s-2.2-5-5-5c-2.3,0-4.3,1.6-4.9,3.9c-0.1,0.3-0.3,0.6-0.6,0.7
	c-0.3,0.1-0.6,0.1-0.9-0.1c-0.5-0.3-1-0.5-1.6-0.5c-1.7,0-3,1.3-3,3s1.3,3,3,3h2v2h-2c-2.8,0-5-2.2-5-5s2.2-5,5-5
	c0.5,0,1.1,0.1,1.6,0.3c1.1-2.6,3.6-4.3,6.4-4.3c3.9,0,7,3.1,7,7S416.9,164,413,164z"/>
<path fill="#444444" d="M413.7,165.3c-0.4-0.4-1-0.4-1.4,0l-1.3,1.3V160c0-0.6-0.4-1-1-1s-1,0.4-1,1v6.6l-1.3-1.3
	c-0.4-0.4-1-0.4-1.4,0s-0.4,1,0,1.4l3,3c0.2,0.2,0.5,0.3,0.7,0.3s0.5-0.1,0.7-0.3l3-3C414.1,166.3,414.1,165.7,413.7,165.3z"/>
<path fill="#444444" d="M463,169h-8c-2.8,0-5-2.2-5-5s2.2-5,5-5c0.5,0,1.1,0.1,1.6,0.3c1.1-2.6,3.6-4.3,6.4-4.3c3.9,0,7,3.1,7,7
	S466.9,169,463,169z M455,161c-1.7,0-3,1.3-3,3s1.3,3,3,3h8c2.8,0,5-2.2,5-5s-2.2-5-5-5c-2.3,0-4.3,1.6-4.9,3.9
	c-0.1,0.3-0.3,0.6-0.6,0.7c-0.3,0.1-0.6,0.1-0.9-0.1C456.1,161.2,455.6,161,455,161z"/>
<path fill="#444444" d="M452,158c-0.6,0-1-0.4-1-1c0-3.3,2.7-6,6-6c1.3,0,2.6,0.4,3.6,1.2c0.4,0.3,0.5,1,0.2,1.4
	c-0.3,0.4-1,0.5-1.4,0.2c-0.7-0.5-1.5-0.8-2.4-0.8c-2.2,0-4,1.8-4,4C453,157.6,452.6,158,452,158z"/>
<path fill="#444444" d="M60,220c-5.5,0-10-4.5-10-10s4.5-10,10-10s10,4.5,10,10S65.5,220,60,220z M60,202c-4.4,0-8,3.6-8,8
	s3.6,8,8,8s8-3.6,8-8S64.4,202,60,202z"/>
<path fill="#444444" d="M60,320c-5.5,0-10-4.5-10-10s4.5-10,10-10s10,4.5,10,10S65.5,320,60,320z M60,302c-4.4,0-8,3.6-8,8
	s3.6,8,8,8s8-3.6,8-8S64.4,302,60,302z"/>
<path fill="#444444" d="M60,270c-5.5,0-10-4.5-10-10s4.5-10,10-10s10,4.5,10,10S65.5,270,60,270z M60,252c-4.4,0-8,3.6-8,8
	s3.6,8,8,8s8-3.6,8-8S64.4,252,60,252z"/>
<path fill="#444444" d="M110,220c-5.5,0-10-4.5-10-10s4.5-10,10-10s10,4.5,10,10S115.5,220,110,220z M110,202c-4.4,0-8,3.6-8,8
	s3.6,8,8,8s8-3.6,8-8S114.4,202,110,202z"/>
<path fill="#444444" d="M160,220c-5.5,0-10-4.5-10-10s4.5-10,10-10s10,4.5,10,10S165.5,220,160,220z M160,202c-4.4,0-8,3.6-8,8
	s3.6,8,8,8s8-3.6,8-8S164.4,202,160,202z"/>
<path fill="#444444" d="M460,270c-5.5,0-10-4.5-10-10s4.5-10,10-10s10,4.5,10,10S465.5,270,460,270z M460,252c-4.4,0-8,3.6-8,8
	s3.6,8,8,8s8-3.6,8-8S464.4,252,460,252z"/>
<polygon fill="#444444" points="114,209 111,209 111,206 109,206 109,209 106,209 106,211 109,211 109,214 111,214 111,211 114,211 
	"/>
<rect x="156" y="209" fill="#444444" width="8" height="2"/>
<path fill="#444444" d="M57.3,213.7l-2-2c-0.4-0.4-0.4-1,0-1.4s1-0.4,1.4,0l1.3,1.3l5.3-5.3c0.4-0.4,1-0.4,1.4,0s0.4,1,0,1.4l-6,6
	C58.3,214.1,57.7,214.1,57.3,213.7z"/>
<path fill="#444444" d="M219,217h-18c-0.6,0-1-0.4-1-1v-12c0-0.6,0.4-1,1-1h18c0.6,0,1,0.4,1,1v12C220,216.6,219.6,217,219,217z
	 M202,215h16v-10h-16V215z"/>
<path fill="#444444" d="M269,217h-18c-0.6,0-1-0.4-1-1v-12c0-0.6,0.4-1,1-1h18c0.6,0,1,0.4,1,1v12C270,216.6,269.6,217,269,217z
	 M252,215h16v-10h-16V215z"/>
<rect x="204" y="207" fill="#444444" width="12" height="2"/>
<path fill="#444444" d="M303,220c-0.6,0-1-0.4-1-1v-18c0-0.6,0.4-1,1-1s1,0.4,1,1v18C304,219.6,303.6,220,303,220z"/>
<rect x="306" y="202" fill="#444444" width="12" height="9"/>
<path fill="#444444" d="M367,220c-0.2,0-0.3,0-0.5-0.1l-6.5-3.7l-6.5,3.7c-0.3,0.2-0.7,0.2-1,0c-0.3-0.2-0.5-0.5-0.5-0.9v-18
	c0-0.6,0.4-1,1-1h14c0.6,0,1,0.4,1,1v18c0,0.4-0.2,0.7-0.5,0.9C367.3,220,367.2,220,367,220z M360,214c0.2,0,0.3,0,0.5,0.1l5.5,3.1
	V202h-12v15.3l5.5-3.1C359.7,214,359.8,214,360,214z"/>
<polygon fill="#444444" points="364,207 361,207 361,204 359,204 359,207 356,207 356,209 359,209 359,212 361,212 361,209 364,209 
	"/>
<path fill="#444444" d="M417,220c-0.2,0-0.3,0-0.5-0.1l-6.5-3.7l-6.5,3.7c-0.3,0.2-0.7,0.2-1,0c-0.3-0.2-0.5-0.5-0.5-0.9v-18
	c0-0.6,0.4-1,1-1h14c0.6,0,1,0.4,1,1v18c0,0.4-0.2,0.7-0.5,0.9C417.3,220,417.2,220,417,220z M410,214c0.2,0,0.3,0,0.5,0.1l5.5,3.1
	V202h-12v15.3l5.5-3.1C409.7,214,409.8,214,410,214z"/>
<rect x="406" y="207" fill="#444444" width="8" height="2"/>
<path fill="#444444" d="M513,258h-6c-0.6,0-1-0.4-1-1s0.4-1,1-1h6c0.6,0,1,0.4,1,1S513.6,258,513,258z"/>
<path fill="#444444" d="M509.2,168.6l-9-11c-0.3-0.3-0.3-0.8-0.1-1.1l3-5c0.2-0.3,0.5-0.5,0.9-0.5h12c0.4,0,0.7,0.2,0.9,0.5l3,5
	c0.2,0.4,0.2,0.8-0.1,1.1l-9,11C510.4,169.1,509.6,169.1,509.2,168.6z M502.2,156.9l7.8,9.5l7.8-9.5l-2.3-3.9h-10.9L502.2,156.9z"/>
<path fill="#444444" d="M515,158h-10c-0.6,0-1-0.4-1-1s0.4-1,1-1h10c0.6,0,1,0.4,1,1S515.6,158,515,158z"/>
<path fill="#444444" d="M468,220h-16c-0.6,0-1-0.4-1-1v-18c0-0.6,0.4-1,1-1h5v2h-4v16h14v-18h2v19C469,219.6,468.6,220,468,220z"/>
<polygon fill="#444444" points="465,209 462,207 459,209 459,200 465,200 "/>
<path fill="#444444" d="M517,220h-14c-0.6,0-1-0.4-1-1v-12h2v11h12v-11h2v12C518,219.6,517.6,220,517,220z"/>
<path fill="#444444" d="M519,203h-6v-2c0-0.6-0.4-1-1-1h-4c-0.6,0-1,0.4-1,1v2h-6c-0.6,0-1,0.4-1,1s0.4,1,1,1h18c0.6,0,1-0.4,1-1
	S519.6,203,519,203z"/>
<path fill="#444444" d="M58.6,261.4c-0.8-0.8-2.8-5.7-2.8-5.7s4.9,2,5.7,2.8c0.8,0.8,0.8,2,0,2.8C60.6,262.2,59.4,262.2,58.6,261.4z
	"/>
<path fill="#444444" d="M118.4,253.1l-8-3c-0.2-0.1-0.5-0.1-0.7,0l-8,3c-0.4,0.1-0.6,0.5-0.6,0.9s0.3,0.8,0.6,0.9l8,3
	c0.1,0,0.2,0.1,0.4,0.1s0.2,0,0.4-0.1l8-3c0.4-0.1,0.6-0.5,0.6-0.9S118.7,253.2,118.4,253.1z"/>
<path fill="#444444" d="M219.4,254.1l-9-4c-0.3-0.1-0.6-0.1-0.8,0l-9,4c-0.4,0.2-0.6,0.5-0.6,0.9s0.2,0.8,0.6,0.9l9,4
	c0.1,0.1,0.3,0.1,0.4,0.1s0.3,0,0.4-0.1l9-4c0.4-0.2,0.6-0.5,0.6-0.9S219.8,254.2,219.4,254.1z"/>
<path fill="#444444" d="M210,265c-0.1,0-0.3,0-0.4-0.1l-9-4c-0.5-0.2-0.7-0.8-0.5-1.3c0.2-0.5,0.8-0.7,1.3-0.5l8.6,3.8l8.6-3.8
	c0.5-0.2,1.1,0,1.3,0.5c0.2,0.5,0,1.1-0.5,1.3l-9,4C210.3,265,210.1,265,210,265z"/>
<path fill="#444444" d="M210,270c-0.1,0-0.3,0-0.4-0.1l-9-4c-0.5-0.2-0.7-0.8-0.5-1.3c0.2-0.5,0.8-0.7,1.3-0.5l8.6,3.8l8.6-3.8
	c0.5-0.2,1.1,0,1.3,0.5c0.2,0.5,0,1.1-0.5,1.3l-9,4C210.3,270,210.1,270,210,270z"/>
<path fill="#444444" d="M110,270c-0.1,0-0.2,0-0.4-0.1l-8-3c-0.4-0.1-0.6-0.5-0.6-0.9v-8c0-0.6,0.4-1,1-1s1,0.4,1,1v7.3l7,2.6l7-2.6
	V258c0-0.6,0.4-1,1-1s1,0.4,1,1v8c0,0.4-0.3,0.8-0.6,0.9l-8,3C110.2,270,110.1,270,110,270z"/>
<path fill="#444444" d="M160,250c-4.8,0-10,1.3-10,4s5.2,4,10,4s10-1.3,10-4S164.8,250,160,250z"/>
<path fill="#444444" d="M169,258c-0.6,0-1,0.4-1,1v1c0,0.5-2.8,2-8,2s-8-1.5-8-2v-1c0-0.6-0.4-1-1-1s-1,0.4-1,1v7c0,2.7,5.2,4,10,4
	s10-1.3,10-4v-7C170,258.4,169.6,258,169,258z M160,268c-5.2,0-8-1.5-8-2v-3.5c1.9,1,5,1.5,8,1.5s6.1-0.5,8-1.5v3.5
	C168,266.5,165.2,268,160,268z"/>
<path fill="#444444" d="M264,254h-2v-2h-4v2h-2v-3c0-0.6,0.4-1,1-1h6c0.6,0,1,0.4,1,1V254z"/>
<path fill="#444444" d="M310,270c-3.9,0-7-3.1-7-7s3.1-7,7-7s7,3.1,7,7S313.9,270,310,270z M310,258c-2.8,0-5,2.2-5,5s2.2,5,5,5
	s5-2.2,5-5S312.8,258,310,258z"/>
<path fill="#444444" d="M314,255h-2v-1c0-1.1-0.9-2-2-2s-2,0.9-2,2v1h-2v-1c0-2.2,1.8-4,4-4s4,1.8,4,4V255z"/>
<circle fill="#444444" cx="357" cy="257" r="2"/>
<path fill="#444444" d="M312,262c0-1.1-0.9-2-2-2s-2,0.9-2,2c0,0.7,0.4,1.4,1,1.7v2.3h2v-2.3C311.6,263.4,312,262.7,312,262z"/>
<path fill="#444444" d="M360.3,269.7l-9-9c-0.2-0.2-0.3-0.4-0.3-0.7v-8c0-0.6,0.4-1,1-1h8c0.3,0,0.5,0.1,0.7,0.3l9,9
	c0.4,0.4,0.4,1,0,1.4l-8,8C361.3,270.1,360.7,270.1,360.3,269.7z M353,259.6l8,8l6.6-6.6l-8-8H353V259.6z"/>
<path fill="#444444" d="M410,262L410,262c-2.2,0-4-1.8-4-4v-4c0-2.2,1.8-4,4-4l0,0c2.2,0,4,1.8,4,4v4C414,260.2,412.2,262,410,262z"
	/>
<path fill="#444444" d="M460,254v12c3.3,0,6-2.7,6-6S463.3,254,460,254z"/>
<path fill="#444444" d="M520,261.7l-3-10c-0.1-0.4-0.5-0.7-1-0.7h-12c-0.4,0-0.8,0.3-1,0.7l-3,10c0,0,0,0.2,0,0.3v6c0,0.6,0.4,1,1,1
	h18c0.6,0,1-0.4,1-1v-6C520,261.9,520,261.8,520,261.7z M504.7,253h10.5l2.4,8H513c-0.6,0-1,0.4-1,1v1h-4v-1c0-0.6-0.4-1-1-1h-4.7
	L504.7,253z M518,267h-16v-4h4v1c0,0.6,0.4,1,1,1h6c0.6,0,1-0.4,1-1v-1h4V267z"/>
<path fill="#444444" d="M63.8,312l-4-1c-0.4-0.1-0.8-0.5-0.8-1v-5c0-0.6,0.4-1,1-1s1,0.4,1,1v4.2l3.2,0.8c0.5,0.1,0.9,0.7,0.7,1.2
	C64.8,311.8,64.3,312.1,63.8,312z"/>
<path fill="#444444" d="M417.4,260.1c-0.5-0.3-1.1-0.1-1.4,0.4c-1.2,2.2-3.6,3.5-6.1,3.5c-2.5,0-4.8-1.3-6.1-3.5
	c-0.3-0.5-0.9-0.6-1.4-0.4c-0.5,0.3-0.6,0.9-0.4,1.4c1.4,2.5,4,4.1,6.8,4.4v2.1h-3c-0.6,0-1,0.4-1,1s0.4,1,1,1h8c0.6,0,1-0.4,1-1
	s-0.4-1-1-1h-3v-2.1c2.8-0.3,5.4-1.9,6.8-4.4C418.1,261,417.9,260.4,417.4,260.1z"/>
<path fill="#444444" d="M119,320h-18c-0.6,0-1-0.4-1-1v-18c0-0.6,0.4-1,1-1h18c0.6,0,1,0.4,1,1v18C120,319.6,119.6,320,119,320z
	 M102,318h16v-16h-16V318z"/>
<path fill="#444444" d="M169,320h-18c-0.6,0-1-0.4-1-1v-18c0-0.6,0.4-1,1-1h18c0.6,0,1,0.4,1,1v18C170,319.6,169.6,320,169,320z
	 M152,318h16v-16h-16V318z"/>
<path fill="#444444" d="M269,320h-18c-0.6,0-1-0.4-1-1v-18c0-0.6,0.4-1,1-1h18c0.6,0,1,0.4,1,1v18C270,319.6,269.6,320,269,320z
	 M252,318h16v-16h-16V318z"/>
<rect x="104" y="304" fill="#444444" width="5" height="5"/>
<rect x="111" y="304" fill="#444444" width="5" height="5"/>
<rect x="104" y="311" fill="#444444" width="5" height="5"/>
<rect x="111" y="311" fill="#444444" width="5" height="5"/>
<path fill="#444444" d="M205,319h-4c-0.6,0-1-0.4-1-1v-7c0-0.6,0.4-1,1-1h4c0.6,0,1,0.4,1,1v7C206,318.6,205.6,319,205,319z
	 M202,317h2v-5h-2V317z"/>
<path fill="#444444" d="M211,306h-2c-0.6,0-1,0.4-1,1v11c0,0.6,0.4,1,1,1h2c0.6,0,1-0.4,1-1v-11C212,306.4,211.6,306,211,306z"/>
<path fill="#444444" d="M219,319h-4c-0.6,0-1-0.4-1-1v-16c0-0.6,0.4-1,1-1h4c0.6,0,1,0.4,1,1v16C220,318.6,219.6,319,219,319z
	 M216,317h2v-14h-2V317z"/>
<polygon fill="#444444" points="264,309 261,309 261,306 259,306 259,309 256,309 256,311 259,311 259,314 261,314 261,311 264,311 
	"/>
<path fill="#444444" d="M319,320h-18c-0.6,0-1-0.4-1-1v-18c0-0.6,0.4-1,1-1h18c0.6,0,1,0.4,1,1v18C320,319.6,319.6,320,319,320z
	 M302,318h16v-16h-16V318z"/>
<path fill="#444444" d="M419,320h-18c-0.6,0-1-0.4-1-1v-18c0-0.6,0.4-1,1-1s1,0.4,1,1v17h17c0.6,0,1,0.4,1,1S419.6,320,419,320z"/>
<rect x="306" y="309" fill="#444444" width="8" height="2"/>
<rect x="355" y="311" fill="#444444" width="10" height="9"/>
<path fill="#444444" d="M369,304h-2v-3c0-0.6-0.4-1-1-1h-12c-0.6,0-1,0.4-1,1v3h-2c-0.6,0-1,0.4-1,1v10c0,0.6,0.4,1,1,1h3v-2h-2v-8
	h16v8h-2v2h3c0.6,0,1-0.4,1-1v-10C370,304.4,369.6,304,369,304z M355,302h10v2h-10V302z"/>
<rect x="155" y="305" fill="#444444" width="10" height="2"/>
<rect x="155" y="309" fill="#444444" width="10" height="2"/>
<rect x="155" y="313" fill="#444444" width="10" height="2"/>
<rect x="404" y="312" fill="#444444" width="3" height="4"/>
<rect x="409" y="305" fill="#444444" width="3" height="11"/>
<rect x="414" y="309" fill="#444444" width="3" height="7"/>
<path fill="#444444" d="M469,304h-3v-3c0-0.6-0.4-1-1-1h-12c-1.7,0-3,1.3-3,3v14c0,1.7,1.3,3,3,3h16c0.6,0,1-0.4,1-1v-14
	C470,304.4,469.6,304,469,304z M452,303c0-0.6,0.4-1,1-1h11v2h-12V303z M468,318h-15c-0.6,0-1-0.4-1-1v-11h16V318z"/>
<circle fill="#444444" cx="464" cy="312" r="2"/>
<path fill="#444444" d="M519,305h-13c-0.6,0-1-0.4-1-1s0.4-1,1-1h13c0.6,0,1,0.4,1,1S519.6,305,519,305z"/>
<path fill="#444444" d="M510,311h-4c-0.6,0-1-0.4-1-1s0.4-1,1-1h4c0.6,0,1,0.4,1,1S510.6,311,510,311z"/>
<path fill="#444444" d="M519,317h-13c-0.6,0-1-0.4-1-1s0.4-1,1-1h13c0.6,0,1,0.4,1,1S519.6,317,519,317z"/>
<path fill="#444444" d="M502,305h-1c-0.6,0-1-0.4-1-1s0.4-1,1-1h1c0.6,0,1,0.4,1,1S502.6,305,502,305z"/>
<path fill="#444444" d="M502,311h-1c-0.6,0-1-0.4-1-1s0.4-1,1-1h1c0.6,0,1,0.4,1,1S502.6,311,502,311z"/>
<path fill="#444444" d="M502,317h-1c-0.6,0-1-0.4-1-1s0.4-1,1-1h1c0.6,0,1,0.4,1,1S502.6,317,502,317z"/>
</svg>
