<?xml version="1.0" encoding="utf-8"?>
<!-- Generator: Adobe Illustrator 19.0.1, SVG Export Plug-In . SVG Version: 6.00 Build 0)  -->
<!DOCTYPE svg PUBLIC "-//W3C//DTD SVG 1.1//EN" "http://www.w3.org/Graphics/SVG/1.1/DTD/svg11.dtd">
<svg version="1.1" id="Layer_1" xmlns="http://www.w3.org/2000/svg" xmlns:xlink="http://www.w3.org/1999/xlink" x="0px" y="0px"
	 width="400px" height="300px" viewBox="0 0 400 300" enable-background="new 0 0 400 300" xml:space="preserve">
<path id="Imported-Layers"  fill="none" stroke="#444444" stroke-width="2" stroke-linecap="round" d="
	M338,239l-4.5-17.1c-0.3-1.1-1.1-2.6-1.9-3.3L329,216"/>
<path id="Imported-Layers_1_"  fill="none" stroke="#444444" stroke-width="2" stroke-linecap="round" d="
	M302,239l4.5-17.1c0.3-1.1,1.1-2.6,1.9-3.3l2.6-2.6"/>
<path id="Oval-2"  fill="none" stroke="#444444" stroke-width="2" stroke-linecap="round" d="M309,244
	c-1.7,0-3-1.3-3-3"/>
<path id="Oval-2_1_"  fill="none" stroke="#444444" stroke-width="2" stroke-linecap="round" d="M331,244
	c-1.7,0-3-1.3-3-3"/>
<circle id="Oval-4"  fill="none" stroke="#444444" stroke-width="2" cx="309" cy="241" r="7">
</circle>
<circle id="Oval-4_1_"  fill="none" stroke="#444444" stroke-width="2" cx="331" cy="241" r="7">
</circle>
<path id="Oval-6"  fill="none" stroke="#444444" stroke-width="2" d="M324,241c0-2.2-1.8-4-4-4
	s-4,1.8-4,4"/>
<path id="Path"  fill="none" stroke="#444444" stroke-width="2" stroke-linecap="round" stroke-linejoin="round" d="
	M247,237l-14-14"/>
<path id="Path_1_"  fill="none" stroke="#444444" stroke-width="2" d="M254,231c0-1.7-1.3-3-3-3
	s-3-1.3-3-3s-1.3-3-3-3s-3-1.3-3-3s-1.3-3-3-3"/>
<path id="Fill"  fill="none" stroke="#444444" stroke-width="2" d="M227,244c0,0.6-0.4,1-1,1s-1-0.4-1-1
	s0.4-1,1-1S227,243.4,227,244"/>
<path id="path"  fill="none" stroke="#444444" stroke-width="2" d="M235,238.7c0.6-0.9,1.9-1.4,2.9-1.1
	l6.2,2.1c0.5,0.2,1.3,0,1.7-0.4l12.6-12.6c0.4-0.4,0.4-1,0-1.4l-13.6-13.6c-0.4-0.4-1-0.4-1.4,0l-12.6,12.6
	c-0.4,0.4-0.6,1.1-0.4,1.7l2.1,6.2c0.3,1-0.1,2.4-1.1,2.9l-8.8,5.4c-2,2-2,5.1,0,7.1c2,2,5.1,2,7.1,0L235,238.7z"/>
<path id="Imported-Layers_2_"  fill="none" stroke="#444444" stroke-width="2" stroke-linecap="square" d="
	M149,239v5c0,0.5,0.4,1,1,1h14v-6H149z M164,239v6h14c0.6,0,1-0.5,1-1v-4c0-0.5-0.4-1-1-1H164z M164,227h-14c-0.6,0-1,0.4-1,0.9v5.1
	h15V227L164,227z M164,227v6h14c0.6,0,1-0.5,1-1v-4c0-0.5-0.4-1-1-1H164z M142,233c-0.6,0-1,0.5-1,1v4c0,0.5,0.4,1,1,1h14v-6H142z
	 M156,239h15v-6h-15V239z M170,221h-13c-0.6,0-1,0.4-1,0.9v5.1h15v-5.1C171,221.4,170.6,221,170,221L170,221z M142,221
	c-0.6,0-1,0.5-1,1v4c0,0.5,0.4,1,1,1h14v-5.1c0-0.5-0.4-0.9-1-0.9H142z M150,215c-0.6,0-1,0.5-1,1v5h15v-5c0-0.5-0.4-1-1-1H150z"/>
<path id="_отопление"  fill="none" stroke="#444444" stroke-width="2" d="M69,239
	c-1.7,0-3-1.3-3-3s1.3-3,3-3v-6c-5,0-9,4-9,9c0,5,4,9,9,9V239L69,239z M89,227c1.7,0,3-1.3,3-3s-1.3-3-3-3v-6c5,0,9,4,9,9s-4,9-9,9
	V227L89,227z M69,233h20v-6H69V233z M69,245h20v-6H69V245z M69,215h20v6H69V215z M65,222c0,0.5,0.4,1,1,1h2c0.6,0,1-0.5,1-1v-8
	c0-0.5-0.4-1-1-1h-2c-0.6,0-1,0.5-1,1V222z M89,246c0,0.5,0.4,1,1,1h2c0.6,0,1-0.5,1-1v-8c0-0.5-0.4-1-1-1h-2c-0.6,0-1,0.5-1,1V246z
	"/>
<path id="Path_2_"  fill="none" stroke="#444444" stroke-width="2" stroke-linecap="round" stroke-linejoin="round" d="
	M315,157l10.4-12.2c0.4-0.4,0.6-0.3,0.6,0.2v11c0,0.6,0.3,0.7,0.6,0.2l9.7-11.5c0.4-0.4,0.6-0.3,0.6,0.2v23c0,0.5-0.4,1-1,1h-21"/>
<path id="Path_3_"  fill="none" stroke="#444444" stroke-width="2" stroke-linecap="round" stroke-linejoin="round" d="
	M312,138h-6H312z"/>
<path id="Path_4_"  fill="none" stroke="#444444" stroke-width="2" stroke-linecap="round" stroke-linejoin="round" d="
	M312,146h-6H312z"/>
<path id="Path_5_"  fill="none" stroke="#444444" stroke-width="2" stroke-linecap="round" stroke-linejoin="round" d="
	M313,154h-8H313z"/>
<path id="Path_6_"  fill="none" stroke="#444444" stroke-width="2" stroke-linecap="round" stroke-linejoin="round" d="
	M314,162h-10H314z"/>
<path id="Path_7_"  fill="none" stroke="#444444" stroke-width="2" stroke-linecap="round" stroke-linejoin="round" d="
	M311,131c0.5,0,1,0.5,1.1,1l2.9,37h-11c-0.6,0-1-0.5-0.9-1l2.8-36c0-0.6,0.5-1,1.1-1H311z"/>
<path id="Path-173"  fill="none" stroke="#444444" stroke-width="2" stroke-linecap="round" stroke-linejoin="round" d="
	M301,169h38"/>
<path id="Stroke-1"  fill="none" stroke="#444444" stroke-width="2" stroke-linecap="round" stroke-linejoin="round" d="
	M251,144v25 M230,169v-25 M237,146v23 M244,146v23 M228,169h25"/>
<path id="Stroke-2"  fill="none" stroke="#444444" stroke-width="2" stroke-linecap="round" stroke-linejoin="round" d="
	M227.5,138.1c0-1.5,1.2-2.7,2.7-2.7c1.9,0,3.4,1.5,3.4,3.4c0,2.4-1.9,4.3-4.3,4.3c-2.9,0-5.3-2.4-5.3-5.3c0-3.7,3-6.7,6.7-6.7h19.7
	c3.7,0,6.7,3,6.7,6.7c0,2.9-2.4,5.3-5.3,5.3c-2.4,0-4.3-1.9-4.3-4.3c0-1.9,1.5-3.4,3.4-3.4c1.5,0,2.7,1.2,2.7,2.7"/>
<path id="Stroke-3"  fill="none" stroke="#444444" stroke-width="2" stroke-linecap="square" d="M234,139
	h13"/>
<path id="Path_8_"  fill="none" stroke="#444444" stroke-width="2" stroke-linecap="square" d="M143,153
	v15c0,0.6,0.4,1,1,1h15v-18"/>
<path id="Path_9_"  fill="none" stroke="#444444" stroke-width="2" stroke-linecap="square" d="M177,144
	v24c0,0.5-0.4,1-1,1h-17v-35"/>
<path id="Rectangle"  fill="none" stroke="#444444" stroke-width="2" stroke-linecap="square" d="
	M149,157h4c0.6,0,1,0.4,1,1v4c0,0.6-0.4,1-1,1h-4c-0.6,0-1-0.4-1-1v-4C148,157.4,148.4,157,149,157z"/>
<path id="Path_10_"  fill="none" stroke="#444444" stroke-width="2" stroke-linecap="round" stroke-linejoin="round" d="
	M156,132l23,12"/>
<path id="Path_11_"  fill="none" stroke="#444444" stroke-width="2" stroke-linecap="round" stroke-linejoin="round" d="
	M158.2,144l-17.2,9"/>
<path id="Stroke-3_1_"  fill="none" stroke="#444444" stroke-width="2" stroke-linecap="square" d="
	M170,157h-4c-0.6,0-1,0.4-1,1v11h6v-11C171,157.4,170.5,157,170,157L170,157z"/>
<path id="Stroke-4"  fill="none" stroke="#444444" stroke-width="2" stroke-linecap="square" d="M171,148
	c0,1.7-1.3,3-3,3s-3-1.3-3-3s1.3-3,3-3S171,146.3,171,148L171,148z"/>
<path id="Stroke-5"  fill="none" stroke="#444444" stroke-width="2" stroke-linecap="round" stroke-linejoin="round" d="
	M170,138v-5c0-0.6,0.4-1,1-1h3c0.6,0,1,0.4,1,1v8"/>
<path id="Path-172"  fill="none" stroke="#444444" stroke-width="2" stroke-linecap="round" stroke-linejoin="round" d="
	M141,169h38"/>
<path id="Stroke-1_1_"  fill="none" stroke="#444444" stroke-width="2" stroke-linecap="square" d="
	M76,156v-21 M84,135v21"/>
<path id="Stroke-2_1_"  fill="none" stroke="#444444" stroke-width="2" d="M68,156h24H68z M68,149h24H68z
	 M68,142h24H68z M92,169v-34H68v34H92z M66,134c0,0.6,0.4,1,1,1h26c0.6,0,1-0.4,1-1v-2c0-0.6-0.4-1-1-1H67c-0.6,0-1,0.4-1,1V134z"/>
<path id="Stroke-3_2_"  fill="none" stroke="#444444" stroke-width="2" stroke-linecap="round" stroke-linejoin="round" d="
	M66,169h10v-5c0-2.2,1.8-4,4-4s4,1.8,4,4v5h10"/>
<path id="Path_12_"  fill="none" stroke="#444444" stroke-width="2" stroke-linecap="round" stroke-linejoin="round" d="
	M331,80c0,1.8,1.6,3.3,3.5,3c1.2-0.2,2.2-1.2,2.4-2.4c0.3-1.5-0.6-2.8-1.8-3.3c-0.7-0.3-1.1-1-1.1-1.8V64"/>
<path id="Stroke-2_2_"  fill="none" stroke="#444444" stroke-width="2" stroke-linecap="round" stroke-linejoin="round" d="
	M302,63c-0.6,0-1-0.4-1-1v-1.1c0-0.6,0.4-1.2,0.9-1.3L309,57h6l23,2.8c0.6,0.1,1,0.6,1,1.1V62c0,0.6-0.5,1-1,1H302z M315,89V53
	c0-0.6-0.5-1.1-1-1.2l-4-0.7c-0.5-0.1-1,0.3-1,0.8v37H315z M309,69h6H309z M309,75h6H309z M309,81h6H309z M321,89h-18H321z"/>
<path id="Imported-Layers_3_"  fill="none" stroke="#444444" stroke-width="2" stroke-linecap="round" stroke-linejoin="round" d="
	M219,74l-2,11L219,74z M218,80h24H218z M231,67c-0.6,0-1,0.5-1,1v6h26v-7H231z M256,57c0-0.5-0.4-1-1-1h-7c-0.6,0-1.1,0.4-1.3,1
	l-3.1,10H256V57z"/>
<path id="Rectangle-44"  fill="none" stroke="#444444" stroke-width="2" d="M229,74h28c3.3,0,6,2.7,6,6
	l0,0c0,3.3-2.7,6-6,6h-28c-3.3,0-6-2.7-6-6l0,0C223,76.7,225.7,74,229,74z"/>
<path id="Imported-Layers_4_"  fill="none" stroke="#444444" stroke-width="2" stroke-linecap="round" stroke-linejoin="round" d="
	M146,85h-4c-0.6,0-1-0.4-1-1V58c0-0.6,0.4-1,1-1h23 M150,84c0,0.6,0.4,1,1,1h4l25-25c0,0,0.4-2.6-1-4s-4-1-4-1l-25,25V84 M173,57
	l5,5 M175,60l-21,21L175,60 M162,85h16c0.6,0,1-0.4,1-1V69"/>
<path id="Stroke-1_3_"  fill="none" stroke="#444444" stroke-width="2" stroke-linecap="round" stroke-linejoin="round" d="
	M62,60c-0.6,0-1,0.4-1,1v26c0,0.6,0.3,0.7,0.7,0.3L69,80h19c0.5,0,1-0.5,1-1V61c0-0.5-0.4-1-1-1H62z M71,56v-3c0-0.6,0.4-1,1-1h26
	c0.6,0,1,0.4,1,1v26c0,0.6-0.3,0.7-0.7,0.3L93,74"/>
<path id="Stroke-2_3_"  fill="none" stroke="#444444" stroke-width="2" stroke-linecap="round" stroke-linejoin="round" d="
	M66,65h18 M66,70h18 M66,75h10"/>
</svg>
