<svg xmlns="http://www.w3.org/2000/svg" width="21.91" height="18" viewBox="0 0 21.91 18">
  <defs>
    <style>
      .cls-1 {
        fill: #101010;
        fill-rule: evenodd;
      }
    </style>
  </defs>
  <path id="arrow-back" class="cls-1" d="M1452.89,149H1438a5,5,0,0,0,0,10h7.89l-1.74-2.582a0.874,0.874,0,0,1,.41-1.3,1.207,1.207,0,0,1,1.51.348l2.54,3.762a0.165,0.165,0,0,1,.04.046,1.108,1.108,0,0,1,.22.256h0a0.831,0.831,0,0,1,.11.372v0.016a0.046,0.046,0,0,1,.01.034c0,0.016.01,0.03,0.01,0.046s-0.01.031-.01,0.046a0.045,0.045,0,0,1-.01.034v0.029a1.131,1.131,0,0,1-.05.259c-0.02.036-.04,0.064-0.06,0.1a0.855,0.855,0,0,1-.13.192,0.63,0.63,0,0,1-.11.082l-2.56,3.793a1.205,1.205,0,0,1-1.51.348,0.873,0.873,0,0,1-.41-1.3l1.74-2.583H1438a7,7,0,0,1,0-14h5v2h9.89Z" transform="translate(-1431 -147)"/>
</svg>
