<svg xmlns="http://www.w3.org/2000/svg" width="24" height="24" viewBox="0 0 24 24">
  <defs>
    <style>
      .cls-1 {
        fill: #101010;
        fill-rule: evenodd;
      }
    </style>
  </defs>
  <path id="arrow-right" class="cls-1" d="M1152,360a12,12,0,1,1,12-12A12,12,0,0,1,1152,360Zm0-22a10,10,0,1,0,10,10A10,10,0,0,0,1152,338Zm5.98,10.081v0.027a1.129,1.129,0,0,1-.05.26c-0.02.035-.04,0.064-0.06,0.1a0.861,0.861,0,0,1-.13.193,0.688,0.688,0,0,1-.11.083l-2.56,3.792a1.205,1.205,0,0,1-1.51.348,0.873,0.873,0,0,1-.41-1.3l1.74-2.583H1147a1,1,0,0,1,0-2h7.89l-1.74-2.582a0.874,0.874,0,0,1,.41-1.3,1.208,1.208,0,0,1,1.51.348l2.54,3.762a0.154,0.154,0,0,1,.04.047,1.083,1.083,0,0,1,.22.255h0a0.839,0.839,0,0,1,.11.374v0.016a0.043,0.043,0,0,1,.01.033c0,0.016.01,0.03,0.01,0.046s-0.01.031-.01,0.046A0.048,0.048,0,0,1,1157.98,348.081Z" transform="translate(-1140 -336)"/>
</svg>
