<svg xmlns="http://www.w3.org/2000/svg" width="24" height="24" viewBox="0 0 24 24">
  <defs>
    <style>
      .cls-1 {
        fill-rule: evenodd;
      }
    </style>
  </defs>
  <path id="calendar" class="cls-1" d="M1090,120h-20a2,2,0,0,1-2-2V100a2,2,0,0,1,2-2h2v2h-2v18h20V100h-2V98h2a2,2,0,0,1,2,2v18A2,2,0,0,1,1090,120Zm-5-7h2a1,1,0,0,1,0,2h-2A1,1,0,0,1,1085,113Zm0-4h2a1,1,0,0,1,0,2h-2A1,1,0,0,1,1085,109Zm2-2h-2a1,1,0,0,1,0-2h2A1,1,0,0,1,1087,107Zm-1-5a1,1,0,0,1-1-1V97a1,1,0,1,1,2,0v4A1,1,0,0,1,1086,102Zm-4-4h2v2h-2V98Zm-3,15h2a1,1,0,0,1,0,2h-2A1,1,0,0,1,1079,113Zm0-4h2a1,1,0,0,1,0,2h-2A1,1,0,0,1,1079,109Zm2-2h-2a1,1,0,0,1,0-2h2A1,1,0,0,1,1081,107Zm-1-5a1,1,0,0,1-1-1V97a1,1,0,1,1,2,0v4A1,1,0,0,1,1080,102Zm-4-4h2v2h-2V98Zm-3,15h2a1,1,0,0,1,0,2h-2A1,1,0,0,1,1073,113Zm0-4h2a1,1,0,0,1,0,2h-2A1,1,0,0,1,1073,109Zm2-2h-2a1,1,0,0,1,0-2h2A1,1,0,0,1,1075,107Zm-1-5a1,1,0,0,1-1-1V97a1,1,0,1,1,2,0v4A1,1,0,0,1,1074,102Z" transform="translate(-1068 -96)"/>
</svg>
