<svg xmlns="http://www.w3.org/2000/svg" width="24" height="24" viewBox="0 0 24 24">
  <defs>
    <style>
      .cls-1 {
        fill: #101010;
        fill-rule: evenodd;
      }
    </style>
  </defs>
  <path id="checkboxes" class="cls-1" d="M1522,114h-14a2,2,0,0,1-2-2V98a2,2,0,0,1,2-2h14a2,2,0,0,1,2,2v14A2,2,0,0,1,1522,114Zm0-16h-14v14h14V98Zm-9.51,8.239,1.14,1.146,3.5-6.87a1,1,0,0,1,1.38-.384,1.051,1.051,0,0,1,.36,1.417l-3.94,7.756a0.914,0.914,0,0,1-.23.42,0.889,0.889,0,0,1-.72.259,0.913,0.913,0,0,1-.94-0.655l-1.82-1.818A0.9,0.9,0,0,1,1512.49,106.239ZM1502,118h14v-2h2v2a2,2,0,0,1-2,2h-14a2,2,0,0,1-2-2V104a2,2,0,0,1,2-2h2v2h-2v14Z" transform="translate(-1500 -96)"/>
</svg>
