<svg xmlns="http://www.w3.org/2000/svg" width="24" height="24" viewBox="0 0 24 24">
  <defs>
    <style>
      .cls-1 {
        fill: #101010;
        fill-rule: evenodd;
      }
    </style>
  </defs>
  <path id="clock2" class="cls-1" d="M1233.72,196.978a11.987,11.987,0,0,0-2.7-2.7A2.494,2.494,0,1,1,1233.72,196.978ZM1234,204a9.961,9.961,0,0,1-3.86,7.882l1.73,2.751a0.885,0.885,0,0,1-.37,1.256,1.055,1.055,0,0,1-1.37-.336l-1.64-2.625a9.939,9.939,0,0,1-8.98,0l-1.64,2.625a1.055,1.055,0,0,1-1.37.336,0.885,0.885,0,0,1-.37-1.256l1.73-2.751A10,10,0,1,1,1234,204Zm-10-8a8,8,0,1,0,8,8A8,8,0,0,0,1224,196Zm0.48,9.753-0.81-.82A0.989,0.989,0,0,1,1223,204v-3a1,1,0,0,1,2,0v2.761l0.73,0.733a0.89,0.89,0,0,1-.01,1.255A0.87,0.87,0,0,1,1224.48,205.753Zm-10.2-8.775a2.494,2.494,0,1,1,2.7-2.7A11.987,11.987,0,0,0,1214.28,196.978Z" transform="translate(-1212 -192)"/>
</svg>
