<svg xmlns="http://www.w3.org/2000/svg" width="24" height="22" viewBox="0 0 24 22">
  <defs>
    <style>
      .cls-1 {
        fill-rule: evenodd;
      }
    </style>
  </defs>
  <path id="cloud-down" class="cls-1" d="M1016,401.482v-2.594A6.988,6.988,0,1,0,1004.1,393H1002a3.988,3.988,0,0,0-2,7.445v2.188A5.986,5.986,0,0,1,1002,391c0.17,0,.34.036,0.5,0.051A9,9,0,1,1,1016,401.482Zm-11.58.667,2.58,1.743V396a1,1,0,0,1,2,0v7.892l2.58-1.743a0.88,0.88,0,0,1,1.3.406,1.216,1.216,0,0,1-.35,1.518l-3.76,2.539a0.193,0.193,0,0,1-.05.039,0.893,0.893,0,0,1-.25.216v0a0.834,0.834,0,0,1-.37.11,0.085,0.085,0,0,0-.02,0l-0.03.007c-0.02,0-.03.009-0.05,0.009a0.219,0.219,0,0,1-.05-0.009l-0.03-.007a0.159,0.159,0,0,0-.03-0.006,0.858,0.858,0,0,1-.26-0.052c-0.03-.015-0.06-0.038-0.1-0.056a1.191,1.191,0,0,1-.19-0.13c-0.03-.03-0.05-0.073-0.08-0.107l-3.79-2.56a1.216,1.216,0,0,1-.35-1.518A0.88,0.88,0,0,1,1004.42,402.149Z" transform="translate(-996 -385)"/>
</svg>
