<svg xmlns="http://www.w3.org/2000/svg" width="24" height="24" viewBox="0 0 24 24">
  <defs>
    <style>
      .cls-1 {
        fill-rule: evenodd;
      }
    </style>
  </defs>
  <path id="cup" class="cls-1" d="M1016,354h-2v1a5,5,0,0,1-5,5h-8a5,5,0,0,1-5-5V343a2,2,0,0,1,2-2h14a2,2,0,0,1,2,2v3h2A4,4,0,0,1,1016,354Zm-4-11H998v12a3,3,0,0,0,3,3h8a3,3,0,0,0,3-3V343Zm4,5h-2v4h2A2,2,0,0,0,1016,348Zm-7-9a1,1,0,0,1-1-1v-1a1,1,0,0,1,2,0v1A1,1,0,0,1,1009,339Zm-4,0a1,1,0,0,1-1-1v-1a1,1,0,0,1,2,0v1A1,1,0,0,1,1005,339Zm-4,0a1,1,0,0,1-1-1v-1a1,1,0,0,1,2,0v1A1,1,0,0,1,1001,339Z" transform="translate(-996 -336)"/>
</svg>
