<svg xmlns="http://www.w3.org/2000/svg" width="24.03" height="24" viewBox="0 0 24.03 24">
  <defs>
    <style>
      .cls-1 {
        fill-rule: evenodd;
      }
    </style>
  </defs>
  <path id="gear" class="cls-1" d="M1163.92,445.4a1.467,1.467,0,0,1-1.45,1.3q-0.045,0-.09,0l-0.11,0a1.613,1.613,0,0,0-1.07,2.813,1.485,1.485,0,0,1,.16,2.011,11.841,11.841,0,0,1-1.95,1.919,1.471,1.471,0,0,1-.9.313,1.493,1.493,0,0,1-1.09-.477,1.719,1.719,0,0,0-1.25-.521,1.508,1.508,0,0,0-.56.105,1.634,1.634,0,0,0-1,1.56,1.476,1.476,0,0,1-1.31,1.514,11.956,11.956,0,0,1-2.7-.007,1.463,1.463,0,0,1-1.29-1.547,1.636,1.636,0,0,0-.99-1.585,1.5,1.5,0,0,0-.57-0.109,1.726,1.726,0,0,0-1.25.52,1.479,1.479,0,0,1-2.02.16,11.853,11.853,0,0,1-1.89-1.923,1.459,1.459,0,0,1,.16-1.99,1.639,1.639,0,0,0,.41-1.809,1.6,1.6,0,0,0-1.45-1h-0.06a1.572,1.572,0,0,1-1.57-1.305,11.325,11.325,0,0,1,0-2.729,1.452,1.452,0,0,1,1.5-1.3,1.731,1.731,0,0,0,1.63-.986,1.624,1.624,0,0,0-.41-1.823,1.484,1.484,0,0,1-.16-2.01,12.027,12.027,0,0,1,1.94-1.92,1.506,1.506,0,0,1,.91-0.313,1.488,1.488,0,0,1,1.09.48,1.728,1.728,0,0,0,1.25.517,1.528,1.528,0,0,0,.56-0.1,1.636,1.636,0,0,0,1-1.563,1.475,1.475,0,0,1,1.31-1.512,12.01,12.01,0,0,1,2.7.007,1.464,1.464,0,0,1,1.29,1.546,1.624,1.624,0,0,0,.99,1.587,1.522,1.522,0,0,0,.57.108,1.729,1.729,0,0,0,1.25-.519,1.472,1.472,0,0,1,2.01-.162,11.747,11.747,0,0,1,1.9,1.921,1.465,1.465,0,0,1-.16,2,1.612,1.612,0,0,0,1.11,2.807,1.57,1.57,0,0,1,1.56,1.3A11.869,11.869,0,0,1,1163.92,445.4Zm-1.98-2.323a3.216,3.216,0,0,1-2.24-5.447,9.619,9.619,0,0,0-1.3-1.315,3.352,3.352,0,0,1-2.29.9,3.061,3.061,0,0,1-1.19-.233,3.227,3.227,0,0,1-1.97-2.947,10.03,10.03,0,0,0-1.85,0,3.021,3.021,0,0,1-2.07,2.7,2.916,2.916,0,0,1-1.1.417,3.352,3.352,0,0,1-2.28-.891,9.7,9.7,0,0,0-1.34,1.317,3.226,3.226,0,0,1,.66,3.484,3.3,3.3,0,0,1-2.94,1.966,10.727,10.727,0,0,0-.01,1.88,3.211,3.211,0,0,1,2.24,5.449,10.85,10.85,0,0,0,1.3,1.316,3.386,3.386,0,0,1,2.29-.9,3.075,3.075,0,0,1,1.2.234,3.22,3.22,0,0,1,1.97,2.945,9.939,9.939,0,0,0,1.85,0,3.247,3.247,0,0,1,1.99-2.893,3.1,3.1,0,0,1,1.17-.224,3.359,3.359,0,0,1,2.29.892,10.543,10.543,0,0,0,1.34-1.317,3.207,3.207,0,0,1-.66-3.484,3.254,3.254,0,0,1,2.94-1.974A9.778,9.778,0,0,0,1161.94,443.073ZM1152,448a4.006,4.006,0,1,1,3.99-4.006A4,4,0,0,1,1152,448Zm0-5.992a2,2,0,1,0,2.01,2A2,2,0,0,0,1152,442.007Z" transform="translate(-1140 -432)"/>
</svg>
