<svg xmlns="http://www.w3.org/2000/svg" width="24" height="24" viewBox="0 0 24 24">
  <defs>
    <style>
      .cls-1 {
        fill-rule: evenodd;
      }
    </style>
  </defs>
  <path id="graph2" class="cls-1" d="M1163.95,205h-4.03c0.03,0.332.08,0.659,0.08,1a10,10,0,1,1-10-10,9.675,9.675,0,0,1,1,.084V192.05c0.33-.027.66-0.05,1-0.05a12,12,0,0,1,12,12C1164,204.338,1163.98,204.669,1163.95,205ZM1151,198.069a8,8,0,1,0,7,7.931,8.243,8.243,0,0,0-.07-1H1152a1,1,0,0,1-1-1v-5.931ZM1163,203l-1.27-1.268a9.965,9.965,0,0,0-8.73-7.645V203h8.94a10.577,10.577,0,0,0-.21-1.268L1163,203h0Z" transform="translate(-1140 -192)"/>
</svg>
