<svg xmlns="http://www.w3.org/2000/svg" width="24" height="24" viewBox="0 0 24 24">
  <defs>
    <style>
      .cls-1 {
        fill: #101010;
        fill-rule: evenodd;
      }
    </style>
  </defs>
  <path id="info" class="cls-1" d="M936,360a12,12,0,1,1,12-12A12,12,0,0,1,936,360Zm0-22a10,10,0,1,0,10,10A10,10,0,0,0,936,338Zm0,16a1,1,0,0,1-.993-1v-5.99a0.993,0.993,0,1,1,1.985,0V353A0.994,0.994,0,0,1,936,354Zm0-10a0.992,0.992,0,1,1,.991-0.992A0.994,0.994,0,0,1,936,344Zm-0.993-1s0,0,0,0a0.043,0.043,0,0,1,0,.005V343Zm1.985,0v0.01a0.043,0.043,0,0,1,0-.005S936.992,343,936.992,343Z" transform="translate(-924 -336)"/>
</svg>
