<svg xmlns="http://www.w3.org/2000/svg" width="16" height="24" viewBox="0 0 16 24">
  <defs>
    <style>
      .cls-1 {
        fill-rule: evenodd;
      }
    </style>
  </defs>
  <path id="lock-closed" class="cls-1" d="M1376,400a8,8,0,1,1-12-6.919V388a4,4,0,0,1,8,0v5.08A7.992,7.992,0,0,1,1376,400Zm-12-6.919,0.13-.079H1364v0.079Zm4-7.079a2,2,0,0,0-2,2v4.26a7.736,7.736,0,0,1,4,0V388A2,2,0,0,0,1368,386Zm4,7h-0.13l0.13,0.079V393Zm-4,.987a6.012,6.012,0,1,0,6.01,6.012A6.02,6.02,0,0,0,1368,393.987Zm0,8.013a1,1,0,0,1-1-1v-2a1,1,0,0,1,2,0v2A1,1,0,0,1,1368,402Z" transform="translate(-1360 -384)"/>
</svg>
