<svg xmlns="http://www.w3.org/2000/svg" width="32" height="24" viewBox="0 0 32 24">
  <defs>
    <style>
      .cls-1 {
        fill-rule: evenodd;
      }
    </style>
  </defs>
  <path id="refresh" class="cls-1" d="M1167.53,396.073l-3.79,2.563c-0.03.033-.05,0.076-0.08,0.1-0.02.085-.03,0.174-0.05,0.259h-2.07a6.18,6.18,0,0,0,.17-0.736l-3.24-2.191a1.215,1.215,0,0,1-.35-1.517,0.88,0.88,0,0,1,1.3-.407l2.57,1.739A9.992,9.992,0,0,0,1144.86,389h-2.59a11.982,11.982,0,0,1,21.72,6.9l2.59-1.747a0.88,0.88,0,0,1,1.3.407A1.215,1.215,0,0,1,1167.53,396.073Zm-21.65-.628a0.88,0.88,0,0,1-1.3.406l-2.41-1.626A10.368,10.368,0,0,0,1142,396a10,10,0,0,0,17.14,7h2.59a11.989,11.989,0,0,1-21.73-7,11.3,11.3,0,0,1,.2-2.028l-2.78,1.879a0.88,0.88,0,0,1-1.3-.406,1.216,1.216,0,0,1,.35-1.518l3.79-2.562a0.882,0.882,0,0,1,.65-0.344,0.51,0.51,0,0,1,.18,0,0.882,0.882,0,0,1,.65.344l3.79,2.562A1.216,1.216,0,0,1,1145.88,395.445Z" transform="translate(-1136 -384)"/>
</svg>
