<svg xmlns="http://www.w3.org/2000/svg" width="24" height="24" viewBox="0 0 24 24">
  <defs>
    <style>
      .cls-1 {
        fill-rule: evenodd;
      }
    </style>
  </defs>
  <path id="share1" class="cls-1" d="M1160,104a3.986,3.986,0,0,1-3.19-1.6l-8.84,5.292c0.01,0.105.03,0.2,0.03,0.312,0,0.128-.03.249-0.04,0.374l8.8,5.3A3.986,3.986,0,1,1,1156,116c0-.149.03-0.291,0.04-0.436l-8.82-5.216a4,4,0,1,1-.06-4.777l8.88-5.189c-0.01-.127-0.04-0.251-0.04-0.382A4,4,0,1,1,1160,104Zm0,14a2,2,0,1,0-2-2A2,2,0,0,0,1160,118Zm-16-12a2,2,0,1,0,2,2A2,2,0,0,0,1144,106Zm16-8a2,2,0,1,0,2,2A2,2,0,0,0,1160,98Z" transform="translate(-1140 -96)"/>
</svg>
