<svg xmlns="http://www.w3.org/2000/svg" width="22" height="22" viewBox="0 0 22 22">
  <defs>
    <style>
      .cls-1 {
        fill: #101010;
        fill-rule: evenodd;
      }
    </style>
  </defs>
  <path id="share2" class="cls-1" d="M1092,199.852a1,1,0,1,1-1.99,0v-4.175l-8.96,8.96a1.214,1.214,0,0,1-1.72-1.714l8.93-8.928h-4.11a1.006,1.006,0,1,1,0-2h6.58q0.03,0,.06,0h0.07c0.03,0,.05.012,0.08,0.014s0.04-.014.06-0.014a0.9,0.9,0,0,1,.61.261,0.341,0.341,0,0,1,.07.055c0.02,0.022.04,0.047,0.06,0.071a0.929,0.929,0,0,1,.26.61c0,0.022-.01.041-0.01,0.063s0.01,0.053.01,0.082v6.71ZM1072,212h16v-9h2v9a2,2,0,0,1-2,2h-16a2,2,0,0,1-2-2V196a2,2,0,0,1,2-2h9v2h-9v16Z" transform="translate(-1070 -192)"/>
</svg>
