<svg xmlns="http://www.w3.org/2000/svg" width="24" height="24" viewBox="0 0 24 24">
  <defs>
    <style>
      .cls-1 {
        fill: #101010;
        fill-rule: evenodd;
      }
    </style>
  </defs>
  <path id="sliders" class="cls-1" d="M1379,157h-7.14a3.983,3.983,0,0,1-7.72,0H1357a1,1,0,0,1,0-2h7.14a3.983,3.983,0,0,1,7.72,0H1379A1,1,0,0,1,1379,157Zm-11-3a2,2,0,1,0,2,2A2,2,0,0,0,1368,154Zm11-5h-1.14a3.983,3.983,0,0,1-7.72,0H1357a1,1,0,0,1,0-2h13.14a3.983,3.983,0,0,1,7.72,0H1379A1,1,0,0,1,1379,149Zm-5-3a2,2,0,1,0,2,2A2,2,0,0,0,1374,146Zm-17,17h1.14a3.983,3.983,0,0,1,7.72,0H1379a1,1,0,0,1,0,2h-13.14a3.983,3.983,0,0,1-7.72,0H1357A1,1,0,0,1,1357,163Zm5,3a2,2,0,1,0-2-2A2,2,0,0,0,1362,166Z" transform="translate(-1356 -144)"/>
</svg>
