<svg xmlns="http://www.w3.org/2000/svg" width="24" height="24" viewBox="0 0 24 24">
  <defs>
    <style>
      .cls-1 {
        fill: #101010;
        fill-rule: evenodd;
      }
    </style>
  </defs>
  <path id="speedo1" class="cls-1" d="M936,168a12,12,0,1,1,12-12A12,12,0,0,1,936,168Zm0-22a10,10,0,1,0,10,10A10,10,0,0,0,936,146Zm8,10.007V156h-2a6,6,0,0,0-12,0h-2a8,8,0,0,1,16,0v0.007Zm-8.951,1.162a0.962,0.962,0,0,1-.035-0.176v-3.985a0.986,0.986,0,1,1,1.972,0v3.985a0.935,0.935,0,0,1-.035.175A3,3,0,1,1,935.049,157.169ZM936,161a1,1,0,1,0-1-1A1,1,0,0,0,936,161Zm0,3h0Z" transform="translate(-924 -144)"/>
</svg>
