<svg xmlns="http://www.w3.org/2000/svg" width="24" height="24" viewBox="0 0 24 24">
  <defs>
    <style>
      .cls-1 {
        fill-rule: evenodd;
      }
    </style>
  </defs>
  <path id="speedo2" class="cls-1" d="M1440,360a12,12,0,1,1,12-12A12.011,12.011,0,0,1,1440,360Zm0-22.006A10.006,10.006,0,1,0,1450.01,348,10.019,10.019,0,0,0,1440,337.994Zm-1.38,12.249c-1-1-3.62-7.24-3.62-7.24s6.24,2.62,7.24,3.62A2.56,2.56,0,0,1,1438.62,350.243Zm2.1-2.884A18.326,18.326,0,0,0,1438,346a17.644,17.644,0,0,0,1.36,2.715A0.961,0.961,0,1,0,1440.72,347.359Z" transform="translate(-1428 -336)"/>
</svg>
