<svg xmlns="http://www.w3.org/2000/svg" width="24" height="24" viewBox="0 0 24 24">
  <defs>
    <style>
      .cls-1 {
        fill-rule: evenodd;
      }
    </style>
  </defs>
  <path id="star" class="cls-1" d="M1523.91,392.947a1.745,1.745,0,0,0-1.38-1.17l-6.25-.958L1513.57,385a1.731,1.731,0,0,0-3.14,0l-2.71,5.817-6.25.958a1.747,1.747,0,0,0-.98,2.939l4.58,4.716-1.06,6.543a1.733,1.733,0,0,0,2.55,1.807l5.44-3.026,5.44,3.026a1.783,1.783,0,0,0,.84.218,1.737,1.737,0,0,0,1.71-2.025l-1.06-6.543,4.58-4.716A1.745,1.745,0,0,0,1523.91,392.947Zm-6.37,5.216a1.678,1.678,0,0,0-.46,1.46l1.03,6.383-5.29-2.95a1.685,1.685,0,0,0-1.64,0l-5.29,2.95,1.03-6.383a1.678,1.678,0,0,0-.46-1.46l-4.45-4.6,6.08-.936a1.7,1.7,0,0,0,1.27-.958l2.64-5.674,2.64,5.675a1.7,1.7,0,0,0,1.27.957l6.08,0.937Z" transform="translate(-1500 -384)"/>
</svg>
