<svg xmlns="http://www.w3.org/2000/svg" width="22" height="24" viewBox="0 0 22 24">
  <defs>
    <style>
      .cls-1 {
        fill: #101010;
        fill-rule: evenodd;
      }
    </style>
  </defs>
  <path id="stats2" class="cls-1" d="M1520,264a3,3,0,0,1-3-3V243a3,3,0,0,1,6,0v18A3,3,0,0,1,1520,264Zm1-22h-2v20h2V242Zm-9,22a3,3,0,0,1-3-3V250a3,3,0,0,1,6,0v11A3,3,0,0,1,1512,264Zm1-15h-2v13h2V249Zm-9,15a3,3,0,0,1-3-3v-4a3,3,0,0,1,6,0v4A3,3,0,0,1,1504,264Zm1-8h-2v6h2v-6Z" transform="translate(-1501 -240)"/>
</svg>
