<svg xmlns="http://www.w3.org/2000/svg" width="24" height="24" viewBox="0 0 24 24">
  <defs>
    <style>
      .cls-1 {
        fill-rule: evenodd;
      }
    </style>
  </defs>
  <path id="sun" class="cls-1" d="M947,205h-2a1,1,0,0,1,0-2h2A1,1,0,0,1,947,205Zm-4.506-7.248a0.881,0.881,0,0,1-1.246-1.246l1.246-1.245a0.88,0.88,0,1,1,1.245,1.245ZM936,209a5,5,0,1,1,5-5A5,5,0,0,1,936,209Zm0-8a3,3,0,1,0,3,3A3,3,0,0,0,936,201Zm0-5a1,1,0,0,1-1-1v-2a1,1,0,0,1,2,0v2A1,1,0,0,1,936,196Zm-7.494,16.739a0.88,0.88,0,1,1-1.245-1.245l1.245-1.246a0.881,0.881,0,0,1,1.246,1.246Zm0-14.987-1.245-1.246a0.88,0.88,0,1,1,1.245-1.245l1.246,1.245A0.881,0.881,0,0,1,928.506,197.752ZM928,204a1,1,0,0,1-1,1h-2a1,1,0,0,1,0-2h2A1,1,0,0,1,928,204Zm8,8a1,1,0,0,1,1,1v2a1,1,0,0,1-2,0v-2A1,1,0,0,1,936,212Zm7.494-1.752,1.245,1.246a0.88,0.88,0,1,1-1.245,1.245l-1.246-1.245A0.881,0.881,0,0,1,943.494,210.248Z" transform="translate(-924 -192)"/>
</svg>
