<svg xmlns="http://www.w3.org/2000/svg" width="18" height="25" viewBox="0 0 18 25">
  <defs>
    <style>
      .cls-1 {
        fill: #101010;
        fill-rule: evenodd;
      }
    </style>
  </defs>
  <path id="yogurt" class="cls-1" d="M1376,344h-1l-1,13a3,3,0,0,1-3,3h-6a3,3,0,0,1-3-3l-1-13h-1a1,1,0,0,1,0-2h1.08a7.005,7.005,0,0,1,1.97-3.951l-1.52-.916a1.158,1.158,0,0,1-.4-1.562,1.065,1.065,0,0,1,1.49-.418l2.47,1.486a6.981,6.981,0,0,1,9.83,5.361H1376A1,1,0,0,1,1376,344Zm-4,14,0.47-7h-8.94l0.47,7h8Zm-4-20a5,5,0,0,0-4.9,4h9.8A5,5,0,0,0,1368,338Zm-4.93,6,0.33,5h9.2l0.33-5h-9.86Z" transform="translate(-1359 -335)"/>
</svg>
