<?xml version="1.0" encoding="utf-8"?>
<!-- Generator: Adobe Illustrator 18.1.1, SVG Export Plug-In . SVG Version: 6.00 Build 0)  -->
<!DOCTYPE svg PUBLIC "-//W3C//DTD SVG 1.1//EN" "http://www.w3.org/Graphics/SVG/1.1/DTD/svg11.dtd">
<svg version="1.1" id="Layer_1" xmlns="http://www.w3.org/2000/svg" xmlns:xlink="http://www.w3.org/1999/xlink" x="0px" y="0px"
	 width="556px" height="700px" viewBox="0 0 556 700" enable-background="new 0 0 556 700" xml:space="preserve">
<path fill="#444444" d="M486,635c-1.7,0-3,1.3-3,3s1.3,3,3,3s3-1.3,3-3S487.7,635,486,635z M486,639c-0.6,0-1-0.4-1-1s0.4-1,1-1
	s1,0.4,1,1S486.6,639,486,639z M494,635c-1.7,0-3,1.3-3,3s1.3,3,3,3s3-1.3,3-3S495.7,635,494,635z M494,639c-0.6,0-1-0.4-1-1
	s0.4-1,1-1s1,0.4,1,1S494.6,639,494,639z M502,635c-1.7,0-3,1.3-3,3s1.3,3,3,3s3-1.3,3-3S503.7,635,502,635z M502,639
	c-0.6,0-1-0.4-1-1s0.4-1,1-1s1,0.4,1,1S502.6,639,502,639z"/>
<path fill="#444444" d="M456,638c-0.6,0-1,0.4-1,1v7c0,0.6-0.4,1-1,1h-16c-0.6,0-1-0.4-1-1v-16c0-0.6,0.4-1,1-1h7c0.6,0,1-0.4,1-1
	s-0.4-1-1-1h-7c-1.7,0-3,1.3-3,3v16c0,1.7,1.3,3,3,3h16c1.7,0,3-1.3,3-3v-7C457,638.4,456.6,638,456,638z M457,628v6
	c0,0.6-0.4,1-1,1s-1-0.4-1-1v-3.6l-8.2,8.2c-0.4,0.4-1,0.4-1.4,0c-0.4-0.4-0.4-1,0-1.4l8.2-8.2H450c-0.6,0-1-0.4-1-1s0.4-1,1-1h6
	C456.6,627,457,627.4,457,628z"/>
<path fill="#444444" d="M405.8,630.2c-4.3-4.3-11.3-4.3-15.6,0c-4.3,4.3-4.3,11.3,0,15.6c4.3,4.3,11.3,4.3,15.6,0
	C410.1,641.5,410.1,634.5,405.8,630.2z M403.6,631l-2.9,2.9c-1.7-1.1-3.8-1.1-5.5,0l-2.9-2.9C395.6,628.3,400.3,628.3,403.6,631z
	 M401,638c0,1.7-1.3,3-3,3c-1.7,0-3-1.3-3-3s1.3-3,3-3C399.6,635,401,636.3,401,638z M391,632.4l2.9,2.9c-1.1,1.7-1.1,3.8,0,5.5
	l-2.9,2.9C388.3,640.3,388.3,635.7,391,632.4z M392.4,645l2.9-2.9c1.7,1.1,3.8,1.1,5.5,0l2.9,2.9C400.3,647.6,395.6,647.6,392.4,645
	z M405,643.6l-2.9-2.9c1.1-1.7,1.1-3.8,0-5.5l2.9-2.9C407.6,635.7,407.6,640.3,405,643.6z"/>
<path fill="#444444" d="M354,641c0,0.6-0.4,1-1,1h-6c-0.6,0-1-0.4-1-1s0.4-1,1-1h6C353.6,640,354,640.4,354,641z M360,633v14
	c0,1.7-1.3,3-3,3h-14c-1.7,0-3-1.3-3-3v-18c0-1.7,1.3-3,3-3h10L360,633z M353,633h4.2l-4.2-4.2V633z M358,647v-12h-7v-7h-8
	c-0.4,0-0.6,0.2-0.7,0.3c-0.1,0.1-0.3,0.3-0.3,0.7v18c0,0.4,0.2,0.6,0.3,0.7c0.1,0.1,0.3,0.3,0.7,0.3h14c0.4,0,0.6-0.2,0.7-0.3
	C357.8,647.6,358,647.4,358,647z"/>
<path fill="#444444" d="M306,641c0,0.6-0.4,1-1,1h-2v2c0,0.6-0.4,1-1,1s-1-0.4-1-1v-2h-2c-0.6,0-1-0.4-1-1s0.4-1,1-1h2v-2
	c0-0.6,0.4-1,1-1s1,0.4,1,1v2h2C305.6,640,306,640.4,306,641z M312,633v14c0,1.7-1.3,3-3,3h-14c-1.7,0-3-1.3-3-3v-18
	c0-1.7,1.3-3,3-3h10L312,633z M305,633h4.2l-4.2-4.2V633z M310,647v-12h-7v-7h-8c-0.4,0-0.6,0.2-0.7,0.3c-0.1,0.1-0.3,0.3-0.3,0.7
	v18c0,0.4,0.2,0.6,0.3,0.7c0.1,0.1,0.3,0.3,0.7,0.3h14c0.4,0,0.6-0.2,0.7-0.3C309.8,647.6,310,647.4,310,647z"/>
<path fill="#444444" d="M264,633v14c0,1.7-1.3,3-3,3h-14c-1.7,0-3-1.3-3-3v-18c0-1.7,1.3-3,3-3h10L264,633z M257,633h4.2l-4.2-4.2
	V633z M262,647v-12h-7v-7h-8c-0.4,0-0.6,0.2-0.7,0.3c-0.1,0.1-0.3,0.3-0.3,0.7v18c0,0.4,0.2,0.6,0.3,0.7c0.1,0.1,0.3,0.3,0.7,0.3h14
	c0.4,0,0.6-0.2,0.7-0.3C261.8,647.6,262,647.4,262,647z"/>
<path fill="#444444" d="M200.3,633.7c-0.4-0.4-0.4-1,0-1.4l5-5c0.4-0.4,1-0.4,1.4,0l5,5c0.4,0.4,0.4,1,0,1.4
	c-0.2,0.2-0.5,0.3-0.7,0.3s-0.5-0.1-0.7-0.3l-3.3-3.3V642c0,0.6-0.4,1-1,1s-1-0.4-1-1v-11.6l-3.3,3.3
	C201.3,634.1,200.7,634.1,200.3,633.7z M216,641c-0.6,0-1,0.4-1,1v4c0,0.6-0.4,1-1,1h-16c-0.6,0-1-0.4-1-1v-4c0-0.6-0.4-1-1-1
	s-1,0.4-1,1v4c0,0.4,0.1,0.8,0.2,1.2c0.2,0.4,0.4,0.7,0.6,1c0.3,0.3,0.6,0.5,1,0.6c0.4,0.2,0.8,0.2,1.2,0.2h16
	c0.4,0,0.8-0.1,1.2-0.2c0.4-0.2,0.7-0.4,0.9-0.6c0.3-0.3,0.5-0.6,0.6-1c0.2-0.4,0.2-0.8,0.2-1.2v-4C217,641.4,216.6,641,216,641z"/>
<path fill="#444444" d="M152.3,637.7c-0.4-0.4-0.4-1,0-1.4c0.4-0.4,1-0.4,1.4,0l3.3,3.3V628c0-0.6,0.4-1,1-1s1,0.4,1,1v11.6l3.3-3.3
	c0.4-0.4,1-0.4,1.4,0c0.4,0.4,0.4,1,0,1.4l-5,5c-0.2,0.2-0.5,0.3-0.7,0.3s-0.5-0.1-0.7-0.3L152.3,637.7z M168,641c-0.6,0-1,0.4-1,1
	v4c0,0.6-0.4,1-1,1h-16c-0.6,0-1-0.4-1-1v-4c0-0.6-0.4-1-1-1s-1,0.4-1,1v4c0,0.4,0.1,0.8,0.2,1.2c0.2,0.4,0.4,0.7,0.6,1
	c0.3,0.3,0.6,0.5,1,0.6c0.4,0.2,0.8,0.2,1.2,0.2h16c0.4,0,0.8-0.1,1.2-0.2c0.4-0.2,0.7-0.4,0.9-0.6c0.3-0.3,0.5-0.6,0.6-1
	c0.2-0.4,0.2-0.8,0.2-1.2v-4C169,641.4,168.6,641,168,641z"/>
<path fill="#444444" d="M116,629h-12l-6,6v9c0,1.7,1.4,3,3,3h18c1.7,0,3-1.3,3-3v-9L116,629z M104.8,631h10.4l4,4l-5.2,0
	c0,2-1.8,4-4,4s-4-2-4-4h-5.2L104.8,631z M120,644c0,0.6-0.4,1-1,1h-18c-0.6,0-1-0.5-1-1v-7h4.2h0.1c0.9,2.3,3.2,4,5.7,4
	c2.5,0,4.8-1.7,5.6-4l4.4,0V644z"/>
<path fill="#444444" d="M53,633h18c0.6,0,1-0.4,1-1s-0.4-1-1-1H53c-0.6,0-1,0.4-1,1S52.4,633,53,633z M71,637H53c-0.6,0-1,0.4-1,1
	s0.4,1,1,1h18c0.6,0,1-0.4,1-1S71.6,637,71,637z M71,643H53c-0.6,0-1,0.4-1,1s0.4,1,1,1h18c0.6,0,1-0.4,1-1S71.6,643,71,643z"/>
<path fill="#444444" d="M503,581h-13l-8,9l8,9h13c1.7,0,3-1.3,3-3v-12C506,582.3,504.7,581,503,581z M504,596c0,0.6-0.4,1-1,1h-12.1
	l-6.2-7l6.2-7H503c0.6,0,1,0.4,1,1V596z M500.7,592.3c0.4,0.4,0.4,1,0,1.4c-0.2,0.2-0.5,0.3-0.7,0.3s-0.5-0.1-0.7-0.3l-2.3-2.3
	l-2.3,2.3c-0.2,0.2-0.5,0.3-0.7,0.3s-0.5-0.1-0.7-0.3c-0.4-0.4-0.4-1,0-1.4l2.3-2.3l-2.3-2.3c-0.4-0.4-0.4-1,0-1.4
	c0.4-0.4,1-0.4,1.4,0l2.3,2.3l2.3-2.3c0.4-0.4,1-0.4,1.4,0c0.4,0.4,0.4,1,0,1.4l-2.3,2.3L500.7,592.3z"/>
<path fill="#444444" d="M457.7,589.3l-3.5-3.5c-0.4-0.4-1-0.4-1.4,0c-0.4,0.4-0.4,1,0,1.4l1.8,1.8H447v-7.6l1.8,1.8
	c0.4,0.4,1,0.4,1.4,0c0.4-0.4,0.4-1,0-1.4l-3.5-3.5c-0.4-0.4-1-0.4-1.4,0l-3.5,3.5c-0.4,0.4-0.4,1,0,1.4c0.4,0.4,1,0.4,1.4,0
	l1.8-1.8v7.6h-7.6l1.8-1.8c0.4-0.4,0.4-1,0-1.4c-0.4-0.4-1-0.4-1.4,0l-3.5,3.5c-0.4,0.4-0.4,1,0,1.4l3.5,3.5c0.4,0.4,1,0.4,1.4,0
	c0.4-0.4,0.4-1,0-1.4l-1.8-1.8h7.6v7.6l-1.8-1.8c-0.4-0.4-1-0.4-1.4,0c-0.4,0.4-0.4,1,0,1.4l3.5,3.5c0.4,0.4,1,0.4,1.4,0l3.5-3.5
	c0.4-0.4,0.4-1,0-1.4c-0.4-0.4-1-0.4-1.4,0l-1.8,1.8V591h7.6l-1.8,1.8c-0.4,0.4-0.4,1,0,1.4c0.4,0.4,1,0.4,1.4,0l3.5-3.5
	C458.1,590.3,458.1,589.7,457.7,589.3z"/>
<path fill="#444444" d="M399.4,590l6.3-6.3c0.4-0.4,0.4-1,0-1.4c-0.4-0.4-1-0.4-1.4,0l-6.3,6.3l-6.3-6.3c-0.4-0.4-1-0.4-1.4,0
	c-0.4,0.4-0.4,1,0,1.4l6.3,6.3l-6.3,6.3c-0.4,0.4-0.4,1,0,1.4c0.2,0.2,0.5,0.3,0.7,0.3c0.3,0,0.5-0.1,0.7-0.3l6.3-6.3l6.3,6.3
	c0.2,0.2,0.5,0.3,0.7,0.3c0.3,0,0.5-0.1,0.7-0.3c0.4-0.4,0.4-1,0-1.4L399.4,590z"/>
<path fill="#444444" d="M347,597c-0.3,0-0.5-0.1-0.7-0.3l-6-6c-0.4-0.4-0.4-1,0-1.4c0.4-0.4,1-0.4,1.4,0l5.3,5.3l11.3-11.3
	c0.4-0.4,1-0.4,1.4,0c0.4,0.4,0.4,1,0,1.4l-12,12C347.5,596.9,347.3,597,347,597z"/>
<path fill="#444444" d="M311,589h-18c-0.6,0-1,0.4-1,1s0.4,1,1,1h18c0.6,0,1-0.4,1-1S311.6,589,311,589z"/>
<path fill="#444444" d="M263,589h-8v-8c0-0.6-0.4-1-1-1s-1,0.4-1,1v8h-8c-0.6,0-1,0.4-1,1s0.4,1,1,1h8v8c0,0.6,0.4,1,1,1s1-0.4,1-1
	v-8h8c0.6,0,1-0.4,1-1S263.6,589,263,589z"/>
<path fill="#444444" d="M204,580c-0.6,0-1,0.4-1,1v4.6l-6.3-6.3c-0.4-0.4-1-0.4-1.4,0s-0.4,1,0,1.4l6.3,6.3H197c-0.6,0-1,0.4-1,1
	c0,0.6,0.4,1,1,1h7c0.6,0,1-0.5,1-1v-7C205,580.5,204.5,580,204,580z M216.7,599.3l-6.3-6.3h4.6c0.6,0,1-0.4,1-1c0-0.6-0.4-1-1-1h-7
	c-0.6,0-1,0.5-1,1v7c0,0.6,0.4,1,1,1c0.6,0,1-0.4,1-1v-4.6l6.3,6.3c0.4,0.4,1,0.4,1.4,0C217.1,600.3,217.1,599.7,216.7,599.3z"/>
<path fill="#444444" d="M150.4,581h4.6c0.6,0,1-0.4,1-1c0-0.6-0.4-1-1-1h-7c-0.6,0-1,0.4-1,1v7c0,0.6,0.4,1,1,1s1-0.4,1-1v-4.6
	l6.3,6.3c0.4,0.4,1,0.4,1.4,0s0.4-1,0-1.4L150.4,581z M168,592c-0.6,0-1,0.4-1,1v4.6l-6.3-6.3c-0.4-0.4-1-0.4-1.4,0
	c-0.4,0.4-0.4,1,0,1.4l6.3,6.3H161c-0.6,0-1,0.4-1,1s0.4,1,1,1h7c0.6,0,1-0.5,1-1v-7C169,592.4,168.6,592,168,592z"/>
<path fill="#444444" d="M117,586h3c0.6,0,1-0.4,1-1s-0.4-1-1-1h-3c-0.6,0-1-0.4-1-1v-3c0-0.6-0.4-1-1-1s-1,0.4-1,1v3
	C114,584.7,115.3,586,117,586z M100,586h3c1.7,0,3-1.3,3-3v-3c0-0.6-0.4-1-1-1s-1,0.4-1,1v3c0,0.6-0.4,1-1,1h-3c-0.6,0-1,0.4-1,1
	S99.4,586,100,586z M115,601c0.6,0,1-0.4,1-1v-3c0-0.6,0.4-1,1-1h3c0.6,0,1-0.4,1-1s-0.4-1-1-1h-3c-1.7,0-3,1.3-3,3v3
	C114,600.6,114.4,601,115,601z M100,596h3c0.6,0,1,0.4,1,1v3c0,0.6,0.4,1,1,1s1-0.4,1-1v-3c0-1.7-1.3-3-3-3h-3c-0.6,0-1,0.4-1,1
	S99.4,596,100,596z"/>
<path fill="#444444" d="M70,579h-3c-0.6,0-1,0.4-1,1s0.4,1,1,1h3c0.6,0,1,0.4,1,1v3c0,0.6,0.4,1,1,1s1-0.4,1-1v-3
	C73,580.3,71.7,579,70,579z M57,579h-3c-1.7,0-3,1.3-3,3v3c0,0.6,0.4,1,1,1s1-0.4,1-1v-3c0-0.6,0.4-1,1-1h3c0.6,0,1-0.4,1-1
	S57.6,579,57,579z M72,594c-0.6,0-1,0.4-1,1v3c0,0.6-0.4,1-1,1h-3c-0.6,0-1,0.4-1,1s0.4,1,1,1h3c1.7,0,3-1.3,3-3v-3
	C73,594.4,72.6,594,72,594z M57,599h-3c-0.6,0-1-0.4-1-1v-3c0-0.6-0.4-1-1-1s-1,0.4-1,1v3c0,1.7,1.3,3,3,3h3c0.6,0,1-0.4,1-1
	S57.6,599,57,599z"/>
<path fill="#444444" d="M503,535h-4v-1c0-1.7-1.3-3-3-3h-4c-1.7,0-3,1.3-3,3v1h-4c-0.6,0-1,0.4-1,1s0.4,1,1,1h1v12c0,1.7,1.3,3,3,3
	h10c1.7,0,3-1.3,3-3v-12h1c0.6,0,1-0.4,1-1S503.6,535,503,535z M491,534c0-0.6,0.4-1,1-1h4c0.6,0,1,0.4,1,1v1h-6V534z M500,549
	c0,0.6-0.4,1-1,1h-10c-0.6,0-1-0.4-1-1v-12h12V549z"/>
<path fill="#444444" d="M450,533c-3,0-6-2-9-2s-5,1-5,1v12v2v6c0,0.6,0.4,1,1,1s1-0.4,1-1v-6.7c0.8-0.2,1.8-0.3,3-0.3c3,0,6,2,9,2
	s5-1,5-1v-14C455,532,453,533,450,533z M453,544.6c-1,0.3-2,0.4-3,0.4c-1.5,0-2.9-0.6-4.3-1c-1.5-0.5-3.1-1-4.7-1c-1,0-2,0.1-3,0.3
	v-9.9c1-0.3,2-0.4,3-0.4c1.5,0,2.9,0.6,4.3,1c1.5,0.5,3.1,1,4.7,1c1,0,2-0.1,3-0.3V544.6z"/>
<path fill="#444444" d="M398,531c-6.1,0-11,4.9-11,11s4.9,11,11,11s11-4.9,11-11S404.1,531,398,531z M389,542c0-2.1,0.7-4.1,2-5.6
	l12.6,12.6c-1.5,1.2-3.5,2-5.6,2C393,551,389,547,389,542z M405,547.6L392.4,535c1.5-1.2,3.5-2,5.6-2c5,0,9,4,9,9
	C407,544.1,406.3,546.1,405,547.6z"/>
<path fill="#444444" d="M355,536v-1c0-2.8-2.2-5-5-5s-5,2.2-5,5v1h-4v15c0,1.7,1.3,3,3,3h12c1.7,0,3-1.3,3-3v-15H355z M347,535
	c0-1.7,1.3-3,3-3s3,1.3,3,3v1h-6V535z M357,551c0,0.6-0.4,1-1,1h-12c-0.6,0-1-0.4-1-1v-13h14V551z"/>
<path fill="#444444" d="M297,542c0-0.6-0.4-1-1-1h-4c-0.6,0-1,0.4-1,1s0.4,1,1,1h4C296.6,543,297,542.6,297,542z M312,541h-4
	c-0.6,0-1,0.4-1,1s0.4,1,1,1h4c0.6,0,1-0.4,1-1S312.6,541,312,541z M302,531c-0.6,0-1,0.4-1,1v4c0,0.6,0.4,1,1,1s1-0.4,1-1v-4
	C303,531.4,302.6,531,302,531z M302,547c-0.6,0-1,0.4-1,1v4c0,0.6,0.4,1,1,1s1-0.4,1-1v-4C303,547.4,302.6,547,302,547z M297,545.5
	l-2.8,2.8c-0.4,0.4-0.4,1,0,1.4c0.4,0.4,1,0.4,1.4,0l2.8-2.8c0.4-0.4,0.4-1,0-1.4C298.1,545.1,297.4,545.1,297,545.5z M307,538.5
	l2.8-2.8c0.4-0.4,0.4-1,0-1.4c-0.4-0.4-1-0.4-1.4,0l-2.8,2.8c-0.4,0.4-0.4,1,0,1.4C305.9,538.9,306.6,538.9,307,538.5z M295.6,534.2
	c-0.4-0.4-1-0.4-1.4,0c-0.4,0.4-0.4,1,0,1.4l2.8,2.8c0.4,0.4,1,0.4,1.4,0c0.4-0.4,0.4-1,0-1.4L295.6,534.2z M307,545.5
	c-0.4-0.4-1-0.4-1.4,0c-0.4,0.4-0.4,1,0,1.4l2.8,2.8c0.4,0.4,1,0.4,1.4,0c0.4-0.4,0.4-1,0-1.4L307,545.5z"/>
<path fill="#444444" d="M263,533h-18c-1.7,0-3,1.3-3,3v12c0,1.7,1.3,3,3,3h18c1.7,0,3-1.3,3-3v-12C266,534.3,264.7,533,263,533z
	 M257,535v14h-6v-14H257z M244,548v-12c0-0.6,0.4-1,1-1h4v14h-4C244.4,549,244,548.6,244,548z M264,548c0,0.6-0.4,1-1,1h-4v-14h4
	c0.6,0,1,0.4,1,1V548z"/>
<path fill="#444444" d="M214,531h-16c-1.7,0-3,1.3-3,3v16c0,1.7,1.3,3,3,3h16c1.7,0,3-1.3,3-3v-16C217,532.3,215.7,531,214,531z
	 M215,534v7h-8v-8h7C214.6,533,215,533.4,215,534z M198,533h7v8h-8v-7C197,533.4,197.4,533,198,533z M197,550v-7h8v8h-7
	C197.4,551,197,550.6,197,550z M214,551h-7v-8h8v7C215,550.6,214.6,551,214,551z"/>
<path fill="#444444" d="M154,531h-4c-1.7,0-3,1.3-3,3v4c0,1.7,1.3,3,3,3h4c1.7,0,3-1.3,3-3v-4C157,532.3,155.7,531,154,531z
	 M155,538c0,0.6-0.4,1-1,1h-4c-0.6,0-1-0.4-1-1v-4c0-0.6,0.4-1,1-1h4c0.6,0,1,0.4,1,1V538z M166,531h-4c-1.7,0-3,1.3-3,3v4
	c0,1.7,1.3,3,3,3h4c1.7,0,3-1.3,3-3v-4C169,532.3,167.7,531,166,531z M167,538c0,0.6-0.4,1-1,1h-4c-0.6,0-1-0.4-1-1v-4
	c0-0.6,0.4-1,1-1h4c0.6,0,1,0.4,1,1V538z M166,543h-4c-1.7,0-3,1.3-3,3v4c0,1.7,1.3,3,3,3h4c1.7,0,3-1.3,3-3v-4
	C169,544.3,167.7,543,166,543z M167,550c0,0.6-0.4,1-1,1h-4c-0.6,0-1-0.4-1-1v-4c0-0.6,0.4-1,1-1h4c0.6,0,1,0.4,1,1V550z M154,543
	h-4c-1.7,0-3,1.3-3,3v4c0,1.7,1.3,3,3,3h4c1.7,0,3-1.3,3-3v-4C157,544.3,155.7,543,154,543z M155,550c0,0.6-0.4,1-1,1h-4
	c-0.6,0-1-0.4-1-1v-4c0-0.6,0.4-1,1-1h4c0.6,0,1,0.4,1,1V550z"/>
<path fill="#444444" d="M114,553h4c1.7,0,3-1.3,3-3v-4c0-1.7-1.3-3-3-3h-4c-1.7,0-3,1.3-3,3v4C111,551.7,112.3,553,114,553z
	 M113,546c0-0.6,0.4-1,1-1h4c0.6,0,1,0.4,1,1v4c0,0.6-0.4,1-1,1h-4c-0.6,0-1-0.4-1-1V546z M102,553h4c1.7,0,3-1.3,3-3v-16
	c0-1.7-1.3-3-3-3h-4c-1.7,0-3,1.3-3,3v16C99,551.7,100.3,553,102,553z M101,534c0-0.6,0.4-1,1-1h4c0.6,0,1,0.4,1,1v16
	c0,0.6-0.4,1-1,1h-4c-0.6,0-1-0.4-1-1V534z M114,541h4c1.7,0,3-1.3,3-3v-4c0-1.7-1.3-3-3-3h-4c-1.7,0-3,1.3-3,3v4
	C111,539.7,112.3,541,114,541z M113,534c0-0.6,0.4-1,1-1h4c0.6,0,1,0.4,1,1v4c0,0.6-0.4,1-1,1h-4c-0.6,0-1-0.4-1-1V534z"/>
<path fill="#444444" d="M58,531h-4c-1.7,0-3,1.3-3,3v4c0,1.7,1.3,3,3,3h4c1.7,0,3-1.3,3-3v-4C61,532.3,59.7,531,58,531z M59,538
	c0,0.6-0.4,1-1,1h-4c-0.6,0-1-0.4-1-1v-4c0-0.6,0.4-1,1-1h4c0.6,0,1,0.4,1,1V538z M70,531h-4c-1.7,0-3,1.3-3,3v16c0,1.7,1.3,3,3,3h4
	c1.7,0,3-1.3,3-3v-16C73,532.3,71.7,531,70,531z M71,550c0,0.6-0.4,1-1,1h-4c-0.6,0-1-0.4-1-1v-16c0-0.6,0.4-1,1-1h4
	c0.6,0,1,0.4,1,1V550z M58,543h-4c-1.7,0-3,1.3-3,3v4c0,1.7,1.3,3,3,3h4c1.7,0,3-1.3,3-3v-4C61,544.3,59.7,543,58,543z M59,550
	c0,0.6-0.4,1-1,1h-4c-0.6,0-1-0.4-1-1v-4c0-0.6,0.4-1,1-1h4c0.6,0,1,0.4,1,1V550z"/>
<path fill="#444444" d="M486,490c-1.7,0-3,1.4-3,3v2c0,1.7,1.3,3,3,3h2l5,5v-18l-5,5H486z M489.4,491.4l1.6-1.6v0v8.4l-1.6-1.6
	l-0.6-0.6H488h-2c-0.6,0-1-0.4-1-1v-2c0-0.6,0.5-1,1-1h2h0.8L489.4,491.4z M503.7,496.3c0.4,0.4,0.4,1,0,1.4
	c-0.2,0.2-0.5,0.3-0.7,0.3s-0.5-0.1-0.7-0.3l-2.3-2.3l-2.3,2.3c-0.2,0.2-0.5,0.3-0.7,0.3s-0.5-0.1-0.7-0.3c-0.4-0.4-0.4-1,0-1.4
	l2.3-2.3l-2.3-2.3c-0.4-0.4-0.4-1,0-1.4c0.4-0.4,1-0.4,1.4,0l2.3,2.3l2.3-2.3c0.4-0.4,1-0.4,1.4,0c0.4,0.4,0.4,1,0,1.4l-2.3,2.3
	L503.7,496.3z"/>
<path fill="#444444" d="M437,490c-1.7,0-3,1.4-3,3v2c0,1.7,1.3,3,3,3h2l5,5v-18l-5,5H437z M442,489.8L442,489.8v8.4l-2.2-2.2H437
	c-0.6,0-1-0.4-1-1v-2c0-0.6,0.5-1,1-1h2.8L442,489.8z M451.6,500.1c-0.2,0-0.4,0-0.5-0.1c-0.5-0.3-0.6-0.9-0.3-1.4
	c0.4-0.7,0.7-1.4,0.9-2.2c0.2-0.8,0.3-1.6,0.3-2.4c0-0.8-0.1-1.6-0.3-2.4c-0.2-0.8-0.5-1.5-0.9-2.2c-0.3-0.5-0.1-1.1,0.3-1.4
	c0.5-0.3,1.1-0.1,1.4,0.3c0.5,0.8,0.9,1.7,1.1,2.7c0.3,1,0.4,2,0.4,3c0,1-0.1,2-0.4,3c-0.3,0.9-0.6,1.8-1.1,2.7
	C452.3,500,451.9,500.1,451.6,500.1z M454.6,502.9c-0.2,0-0.4-0.1-0.6-0.2c-0.5-0.3-0.6-0.9-0.3-1.4c1.5-2.2,2.2-4.7,2.2-7.3
	c0-2.6-0.8-5.1-2.2-7.3c-0.3-0.5-0.2-1.1,0.3-1.4c0.5-0.3,1.1-0.2,1.4,0.3c1.7,2.5,2.6,5.4,2.6,8.4c0,3-0.9,5.9-2.6,8.4
	C455.2,502.7,454.9,502.9,454.6,502.9z M448.5,497.3c-0.1,0-0.3,0-0.4-0.1c-0.5-0.2-0.7-0.8-0.5-1.3c0.3-0.6,0.4-1.3,0.4-1.9
	c0-0.7-0.1-1.3-0.4-1.9c-0.2-0.5,0-1.1,0.5-1.3s1.1,0,1.3,0.5c0.4,0.9,0.6,1.8,0.6,2.7c0,0.9-0.2,1.9-0.5,2.7
	C449.3,497.1,448.9,497.3,448.5,497.3z"/>
<path fill="#444444" d="M397,485v15.6l-5.3-5.3c-0.4-0.4-1-0.4-1.4,0c-0.4,0.4-0.4,1,0,1.4l7,7c0.4,0.4,1,0.4,1.4,0l7-7
	c0.2-0.2,0.3-0.5,0.3-0.7c0-0.3-0.1-0.5-0.3-0.7c-0.4-0.4-1-0.4-1.4,0l-5.3,5.3V485c0-0.6-0.4-1-1-1S397,484.5,397,485z"/>
<path fill="#444444" d="M351,503v-15.6l5.3,5.3c0.4,0.4,1,0.4,1.4,0c0.4-0.4,0.4-1,0-1.4l-7-7c-0.4-0.4-1-0.4-1.4,0l-7,7
	c-0.2,0.2-0.3,0.5-0.3,0.7c0,0.3,0.1,0.5,0.3,0.7c0.4,0.4,1,0.4,1.4,0l5.3-5.3V503c0,0.6,0.4,1,1,1C350.6,504,351,503.5,351,503z"/>
<path fill="#444444" d="M293,495h15.6l-5.3,5.3c-0.4,0.4-0.4,1,0,1.4c0.4,0.4,1,0.4,1.4,0l7-7c0.4-0.4,0.4-1,0-1.4l-7-7
	c-0.2-0.2-0.5-0.3-0.7-0.3c-0.3,0-0.5,0.1-0.7,0.3c-0.4,0.4-0.4,1,0,1.4l5.3,5.3H293c-0.6,0-1,0.4-1,1S292.5,495,293,495z"/>
<path fill="#444444" d="M263,493h-15.6l5.3-5.3c0.4-0.4,0.4-1,0-1.4c-0.4-0.4-1-0.4-1.4,0l-7,7c-0.4,0.4-0.4,1,0,1.4l7,7
	c0.2,0.2,0.5,0.3,0.7,0.3c0.3,0,0.5-0.1,0.7-0.3c0.4-0.4,0.4-1,0-1.4l-5.3-5.3H263c0.6,0,1-0.4,1-1C264,493.4,263.5,493,263,493z"/>
<path fill="#444444" d="M205.5,489.2l1.3,3.9h3.9l-3.1,2.1l1.2,3.6l-3.2-2.3l-3.3,2.3l1.2-3.6l-3.1-2h3.9L205.5,489.2 M205.5,483
	l-2.7,8.2H194l7.1,4.8l-2.7,8l7.1-5l7.1,5.1l-2.7-8l7.1-4.8h-8.8L205.5,483L205.5,483z"/>
<path fill="#444444" d="M158,483c-6.1,0-11,4.9-11,11s4.9,11,11,11s11-4.9,11-11S164.1,483,158,483z M166.9,493H159v-7.9
	C163.2,485.5,166.5,488.8,166.9,493z M158,503c-5,0-9-4-9-9c0-4.6,3.5-8.4,8-8.9v9.9h9.9C166.4,499.5,162.6,503,158,503z"/>
<path fill="#444444" d="M110,483c-1.7,0-3,1.3-3,3v16c0,1.7,1.3,3,3,3s3-1.3,3-3v-16C113,484.3,111.7,483,110,483z M111,502
	c0,0.6-0.4,1-1,1s-1-0.4-1-1v-16c0-0.6,0.4-1,1-1s1,0.4,1,1V502z M118,489c-1.7,0-3,1.3-3,3v10c0,1.7,1.3,3,3,3s3-1.3,3-3v-10
	C121,490.3,119.7,489,118,489z M119,502c0,0.6-0.4,1-1,1s-1-0.4-1-1v-10c0-0.6,0.4-1,1-1s1,0.4,1,1V502z M102,495c-1.7,0-3,1.3-3,3
	v4c0,1.7,1.3,3,3,3s3-1.3,3-3v-4C105,496.3,103.7,495,102,495z M103,502c0,0.6-0.4,1-1,1s-1-0.4-1-1v-4c0-0.6,0.4-1,1-1s1,0.4,1,1
	V502z"/>
<path fill="#444444" d="M70,483c-1.7,0-3,1.3-3,3v16c0,1.7,1.3,3,3,3s3-1.3,3-3v-16C73,484.3,71.7,483,70,483z M71,502
	c0,0.6-0.4,1-1,1s-1-0.4-1-1v-16c0-0.6,0.4-1,1-1s1,0.4,1,1V502z M62,489c-1.7,0-3,1.3-3,3v10c0,1.7,1.3,3,3,3s3-1.3,3-3v-10
	C65,490.3,63.7,489,62,489z M63,502c0,0.6-0.4,1-1,1s-1-0.4-1-1v-10c0-0.6,0.4-1,1-1s1,0.4,1,1V502z M54,495c-1.7,0-3,1.3-3,3v4
	c0,1.7,1.3,3,3,3s3-1.3,3-3v-4C57,496.3,55.7,495,54,495z M55,502c0,0.6-0.4,1-1,1s-1-0.4-1-1v-4c0-0.6,0.4-1,1-1s1,0.4,1,1V502z"/>
<path fill="#444444" d="M494,457c-1.4,0-2.8-0.3-4-0.8c-1.2-0.5-2.4-1.2-3.4-2.1c-2-1.8-3.3-4.3-3.5-7c-0.1-0.5,0.3-1,0.9-1.1
	c0.5-0.1,1,0.3,1.1,0.9c0.2,2.2,1.2,4.3,2.9,5.8c0.8,0.7,1.7,1.3,2.8,1.7c1.1,0.4,2.2,0.6,3.3,0.6c1.2,0,2.4-0.2,3.5-0.7
	c0.5-0.2,1-0.5,1.5-0.8c0.5-0.3,0.9-0.7,1.3-1.1c0.4-0.4,0.8-0.9,1.1-1.3c0.3-0.5,0.6-1,0.8-1.5c0.5-1.1,0.7-2.3,0.7-3.5
	c0-1.1-0.2-2.3-0.6-3.3c-0.4-1-1-1.9-1.7-2.8c-1.5-1.6-3.5-2.7-5.8-2.9c-0.5-0.1-1-0.5-0.9-1.1c0.1-0.5,0.5-1,1.1-0.9
	c2.7,0.3,5.2,1.5,7,3.5c0.9,1,1.6,2.1,2.1,3.4c0.5,1.3,0.8,2.6,0.8,4c0,1.5-0.3,2.9-0.9,4.3c-0.3,0.7-0.6,1.3-1,1.9
	c-0.4,0.6-0.8,1.1-1.3,1.6c-0.5,0.5-1,0.9-1.6,1.3c-0.6,0.4-1.2,0.7-1.9,1C496.9,456.7,495.5,457,494,457z M494.7,445.3l-8.3-8.3
	h3.6c0.6,0,1-0.4,1-1s-0.4-1-1-1h-6c-0.6,0-1,0.4-1,1v6c0,0.6,0.4,1,1,1s1-0.4,1-1v-3.6l8.3,8.3c0.2,0.2,0.5,0.3,0.7,0.3
	s0.5-0.1,0.7-0.3C495.1,446.3,495.1,445.7,494.7,445.3z"/>
<path fill="#444444" d="M455,454h-5c-0.4,0-0.7-0.2-0.9-0.5l-7.7-13.5H437c-0.6,0-1-0.4-1-1s0.4-1,1-1h5c0.4,0,0.7,0.2,0.9,0.5
	l7.7,13.5h4.4c0.6,0,1,0.4,1,1S455.6,454,455,454z M454,439c0-0.6-0.4-1-1-1h-5c-0.6,0-1,0.4-1,1s0.4,1,1,1h5
	C453.6,440,454,439.6,454,439z"/>
<path fill="#444444" d="M404,448L404,448h-2v-4h2c2.2,0,4-1.8,4-4s-1.8-4-4-4s-4,1.8-4,4v2h-4v-2c0-2.2-1.8-4-4-4s-4,1.8-4,4
	s1.8,4,4,4h2v4h-2l0,0l0,0c-2.2,0-4,1.8-4,4s1.8,4,4,4s4-1.8,4-4l0,0v-2h4v2c0,0,0,0,0,0c0,2.2,1.8,4,4,4s4-1.8,4-4
	S406.2,448,404,448z M404,438c1.1,0,2,0.9,2,2s-0.9,2-2,2h-2v-2C402,438.9,402.9,438,404,438z M390,440c0-1.1,0.9-2,2-2s2,0.9,2,2v2
	h-2C390.9,442,390,441.1,390,440z M392,454c-1.1,0-2-0.9-2-2c0-1.1,0.9-2,2-2l0,0h2v2C394,453.1,393.1,454,392,454z M396,448v-4h4v4
	H396z M404,454c-1.1,0-2-0.9-2-2l0,0v-2h2c1.1,0,2,0.9,2,2C406,453.1,405.1,454,404,454z"/>
<path fill="#444444" d="M350,457c-1.4,0-2.7-0.3-3.9-0.8c-0.6-0.3-1.2-0.6-1.7-0.9c-0.5-0.4-1-0.8-1.5-1.2c-0.5-0.5-0.9-1-1.2-1.5
	c-0.4-0.5-0.7-1.1-0.9-1.7c-0.5-1.2-0.8-2.5-0.8-3.9s0.3-2.7,0.8-3.9c0.3-0.6,0.6-1.2,0.9-1.7c0.4-0.5,0.8-1,1.2-1.5
	c0.4-0.4,1-0.4,1.4,0c0.4,0.4,0.4,1,0,1.4c-0.7,0.7-1.3,1.6-1.7,2.5c-0.4,1-0.6,2-0.6,3.1c0,1.1,0.2,2.1,0.6,3.1
	c0.4,1,1,1.8,1.7,2.5c0.7,0.7,1.6,1.3,2.5,1.7c1,0.4,2,0.6,3.1,0.6s2.1-0.2,3.1-0.6c1-0.4,1.8-1,2.5-1.7c0.7-0.7,1.3-1.6,1.7-2.5
	c0.4-1,0.6-2,0.6-3.1c0-1.1-0.2-2.1-0.6-3.1c-0.4-1-1-1.8-1.7-2.5c-0.4-0.4-0.4-1,0-1.4c0.4-0.4,1-0.4,1.4,0c0.5,0.5,0.9,1,1.2,1.5
	c0.4,0.5,0.7,1.1,0.9,1.7c0.5,1.2,0.8,2.5,0.8,3.9s-0.3,2.7-0.8,3.9c-0.3,0.6-0.6,1.2-0.9,1.7c-0.4,0.5-0.8,1-1.2,1.5
	c-0.5,0.5-1,0.9-1.5,1.2c-0.5,0.4-1.1,0.7-1.7,0.9C352.7,456.7,351.4,457,350,457z M351,446v-10c0-0.6-0.4-1-1-1s-1,0.4-1,1v10
	c0,0.6,0.4,1,1,1S351,446.6,351,446z"/>
<path fill="#444444" d="M301.5,437l9.2,9.2c0.3,0.3,0.3,0.6,0.3,0.7c0,0.2,0,0.5-0.3,0.7l-7.1,7.1c-0.3,0.3-0.6,0.3-0.7,0.3
	c-0.2,0-0.5,0-0.7-0.3l-9.2-9.2V437H301.5 M302.3,435H291v11.3l9.8,9.8c0.6,0.6,1.4,0.9,2.1,0.9s1.5-0.3,2.1-0.9l7.1-7.1
	c1.2-1.2,1.2-3.1,0-4.2L302.3,435L302.3,435z M298.5,440c-1.4,0-2.5,1.1-2.5,2.5s1.1,2.5,2.5,2.5s2.5-1.1,2.5-2.5
	S299.9,440,298.5,440z M298.5,443c-0.3,0-0.5-0.2-0.5-0.5s0.2-0.5,0.5-0.5s0.5,0.2,0.5,0.5S298.8,443,298.5,443z"/>
<path fill="#444444" d="M249,436c0,0.6-0.4,1-1,1h-2c-0.6,0-1,0.4-1,1v2c0,0.6-0.4,1-1,1c-0.6,0-1-0.4-1-1v-2c0-1.7,1.3-3,3-3h2
	C248.6,435,249,435.4,249,436z M245,444v4c0,0.6-0.4,1-1,1c-0.6,0-1-0.4-1-1v-4c0-0.6,0.4-1,1-1C244.6,443,245,443.4,245,444z
	 M249,456c0,0.6-0.4,1-1,1h-2c-1.7,0-3-1.3-3-3v-2c0-0.6,0.4-1,1-1c0.6,0,1,0.4,1,1v2c0,0.6,0.4,1,1,1h2
	C248.6,455,249,455.4,249,456z M257,456c0,0.6-0.4,1-1,1h-4c-0.6,0-1-0.4-1-1c0-0.6,0.4-1,1-1h4C256.6,455,257,455.4,257,456z
	 M265,452v2c0,1.7-1.3,3-3,3h-2c-0.6,0-1-0.4-1-1c0-0.6,0.4-1,1-1h2c0.6,0,1-0.4,1-1v-2c0-0.6,0.4-1,1-1
	C264.6,451,265,451.4,265,452z M265,444v4c0,0.6-0.4,1-1,1c-0.6,0-1-0.4-1-1v-4c0-0.6,0.4-1,1-1C264.6,443,265,443.4,265,444z
	 M265,438v2c0,0.6-0.4,1-1,1c-0.6,0-1-0.4-1-1v-2c0-0.6-0.4-1-1-1h-2c-0.6,0-1-0.4-1-1c0-0.6,0.4-1,1-1h2
	C263.7,435,265,436.3,265,438z M257,436c0,0.6-0.4,1-1,1h-4c-0.6,0-1-0.4-1-1c0-0.6,0.4-1,1-1h4C256.6,435,257,435.4,257,436z
	 M258,445h-8c-0.6,0-1,0.4-1,1s0.4,1,1,1h8c0.6,0,1-0.4,1-1S258.6,445,258,445z"/>
<path fill="#444444" d="M201,436c0,0.6-0.4,1-1,1h-2c-0.6,0-1,0.4-1,1v2c0,0.6-0.4,1-1,1c-0.6,0-1-0.4-1-1v-2c0-1.7,1.3-3,3-3h2
	C200.6,435,201,435.4,201,436z M197,444v4c0,0.6-0.4,1-1,1c-0.6,0-1-0.4-1-1v-4c0-0.6,0.4-1,1-1C196.6,443,197,443.4,197,444z
	 M201,456c0,0.6-0.4,1-1,1h-2c-1.7,0-3-1.3-3-3v-2c0-0.6,0.4-1,1-1c0.6,0,1,0.4,1,1v2c0,0.6,0.4,1,1,1h2
	C200.6,455,201,455.4,201,456z M209,456c0,0.6-0.4,1-1,1h-4c-0.6,0-1-0.4-1-1c0-0.6,0.4-1,1-1h4C208.6,455,209,455.4,209,456z
	 M217,452v2c0,1.7-1.3,3-3,3h-2c-0.6,0-1-0.4-1-1c0-0.6,0.4-1,1-1h2c0.6,0,1-0.4,1-1v-2c0-0.6,0.4-1,1-1
	C216.6,451,217,451.4,217,452z M217,444v4c0,0.6-0.4,1-1,1c-0.6,0-1-0.4-1-1v-4c0-0.6,0.4-1,1-1C216.6,443,217,443.4,217,444z
	 M217,438v2c0,0.6-0.4,1-1,1c-0.6,0-1-0.4-1-1v-2c0-0.6-0.4-1-1-1h-2c-0.6,0-1-0.4-1-1c0-0.6,0.4-1,1-1h2
	C215.7,435,217,436.3,217,438z M209,436c0,0.6-0.4,1-1,1h-4c-0.6,0-1-0.4-1-1c0-0.6,0.4-1,1-1h4C208.6,435,209,435.4,209,436z
	 M210,445h-3v-3c0-0.6-0.4-1-1-1s-1,0.4-1,1v3h-3c-0.6,0-1,0.4-1,1s0.4,1,1,1h3v3c0,0.6,0.4,1,1,1s1-0.4,1-1v-3h3c0.6,0,1-0.4,1-1
	S210.6,445,210,445z"/>
<path fill="#444444" d="M153,436c0,0.6-0.4,1-1,1h-2c-0.6,0-1,0.4-1,1v2c0,0.6-0.4,1-1,1s-1-0.4-1-1v-2c0-1.7,1.3-3,3-3h2
	C152.6,435,153,435.4,153,436z M149,444v4c0,0.6-0.4,1-1,1s-1-0.4-1-1v-4c0-0.6,0.4-1,1-1S149,443.4,149,444z M153,456
	c0,0.6-0.4,1-1,1h-2c-1.7,0-3-1.3-3-3v-2c0-0.6,0.4-1,1-1s1,0.4,1,1v2c0,0.6,0.4,1,1,1h2C152.6,455,153,455.4,153,456z M161,456
	c0,0.6-0.4,1-1,1h-4c-0.6,0-1-0.4-1-1c0-0.6,0.4-1,1-1h4C160.6,455,161,455.4,161,456z M169,452v2c0,1.7-1.3,3-3,3h-2
	c-0.6,0-1-0.4-1-1c0-0.6,0.4-1,1-1h2c0.6,0,1-0.4,1-1v-2c0-0.6,0.4-1,1-1C168.6,451,169,451.4,169,452z M169,444v4c0,0.6-0.4,1-1,1
	c-0.6,0-1-0.4-1-1v-4c0-0.6,0.4-1,1-1C168.6,443,169,443.4,169,444z M169,438v2c0,0.6-0.4,1-1,1c-0.6,0-1-0.4-1-1v-2
	c0-0.6-0.4-1-1-1h-2c-0.6,0-1-0.4-1-1c0-0.6,0.4-1,1-1h2C167.7,435,169,436.3,169,438z M161,436c0,0.6-0.4,1-1,1h-4
	c-0.6,0-1-0.4-1-1c0-0.6,0.4-1,1-1h4C160.6,435,161,435.4,161,436z"/>
<path fill="#444444" d="M116,448c-1.2,0-2.3,0.5-3,1.4l-5.1-2.5c0.1-0.3,0.1-0.6,0.1-0.8s0-0.6-0.1-0.8l5.1-2.5
	c0.7,0.8,1.8,1.4,3,1.4c2.2,0,4-1.8,4-4s-1.8-4-4-4s-4,1.8-4,4c0,0.3,0,0.6,0.1,0.8l-5.1,2.5c-0.7-0.8-1.8-1.4-3-1.4
	c-2.2,0-4,1.8-4,4s1.8,4,4,4c1.2,0,2.3-0.5,3-1.4l5.1,2.5c-0.1,0.3-0.1,0.6-0.1,0.8c0,2.2,1.8,4,4,4s4-1.8,4-4S118.2,448,116,448z
	 M116,438c1.1,0,2,0.9,2,2s-0.9,2-2,2s-2-0.9-2-2S114.9,438,116,438z M104,448c-1.1,0-2-0.9-2-2s0.9-2,2-2s2,0.9,2,2
	S105.1,448,104,448z M116,454c-1.1,0-2-0.9-2-2c0-1.1,0.9-2,2-2s2,0.9,2,2C118,453.1,117.1,454,116,454z"/>
<path fill="#444444" d="M73,438v6c0,0.6-0.4,1-1,1h-6c-0.6,0-1-0.4-1-1s0.4-1,1-1h3.4c-1.4-1.3-2.4-2.4-2.7-2.7
	c-0.8-0.8-1.7-1.4-2.6-1.8c-1-0.4-2-0.6-3-0.6s-2.1,0.2-3,0.6c-1,0.4-1.9,1-2.6,1.8c-0.8,0.8-1.4,1.7-1.8,2.6c-0.4,1-0.6,2-0.6,3
	s0.2,2.1,0.6,3c0.4,1,1,1.9,1.8,2.6c0.8,0.8,1.7,1.4,2.6,1.8c1,0.4,2,0.6,3,0.6s2.1-0.2,3-0.6c1-0.4,1.9-1,2.6-1.8
	c0.4-0.4,0.8-0.9,1.1-1.4c0.3-0.5,0.6-1,0.8-1.6c0.2-0.5,0.8-0.8,1.3-0.6c0.5,0.2,0.8,0.8,0.6,1.3c-0.2,0.7-0.6,1.4-1,2
	c-0.4,0.6-0.9,1.2-1.4,1.8c-1,1-2.1,1.7-3.3,2.2c-0.6,0.2-1.2,0.4-1.9,0.5c-0.6,0.1-1.3,0.2-1.9,0.2s-1.3-0.1-1.9-0.2
	c-0.6-0.1-1.3-0.3-1.9-0.5c-1.2-0.5-2.4-1.2-3.3-2.2c-1-1-1.7-2.1-2.2-3.3c-0.2-0.6-0.4-1.2-0.5-1.9c-0.1-0.6-0.2-1.3-0.2-1.9
	s0.1-1.3,0.2-1.9c0.1-0.6,0.3-1.3,0.5-1.9c0.5-1.2,1.2-2.4,2.2-3.3c1-1,2.1-1.7,3.3-2.2c0.6-0.2,1.2-0.4,1.9-0.5
	c0.6-0.1,1.3-0.2,1.9-0.2s1.3,0.1,1.9,0.2c0.6,0.1,1.3,0.3,1.9,0.5c1.2,0.5,2.4,1.2,3.3,2.2c0.3,0.3,1.5,1.4,2.9,2.9V438
	c0-0.6,0.4-1,1-1S73,437.4,73,438z"/>
<path fill="#444444" d="M494,386l-11,5v14l11,5l11-5v-14L494,386z M494,388.2l7.4,3.4l-7.4,3.4l-7.4-3.4L494,388.2z M485,403.7V393
	l8,3.6v10.7L485,403.7z M503,403.7l-8,3.6v-10.7l8-3.6V403.7z"/>
<path fill="#444444" d="M446.4,387c-0.1,0-0.3,0-0.4,0s-0.3,0-0.4,0c-5.9,0.2-10.6,5.1-10.6,11s4.7,10.8,10.6,11c0.1,0,0.3,0,0.4,0
	s0.3,0,0.4,0c5.9-0.2,10.6-5.1,10.6-11S452.3,387.2,446.4,387z M454.9,397h-4c-0.2-3.4-1.6-6-2.7-7.7
	C451.8,390.2,454.5,393.3,454.9,397z M446,389.5c1,1.3,2.7,3.9,3,7.5H443C443.3,393.5,445,390.8,446,389.5z M449,399
	c-0.3,3.5-2,6.2-3,7.5c-1-1.3-2.7-3.9-3-7.5H449z M443.7,389.3c-1.1,1.7-2.5,4.4-2.7,7.7h-4C437.5,393.3,440.2,390.2,443.7,389.3z
	 M437.1,399h4c0.2,3.3,1.6,6,2.7,7.7C440.2,405.8,437.5,402.7,437.1,399z M448.3,406.7c1.1-1.7,2.5-4.4,2.7-7.7h4
	C454.5,402.7,451.8,405.8,448.3,406.7z"/>
<path fill="#444444" d="M408,397c-0.6,0-1,0.4-1,1c0,4.6-3.5,8.4-8,8.9v-12.1c1.7-0.4,3-2,3-3.9c0-2.2-1.8-4-4-4s-4,1.8-4,4
	c0,1.9,1.3,3.4,3,3.9v12.1c-4.5-0.5-8-4.3-8-8.9c0-0.6-0.4-1-1-1s-1,0.4-1,1c0,6.1,4.9,11,11,11s11-4.9,11-11
	C409,397.4,408.6,397,408,397z M396,391c0-1.1,0.9-2,2-2c1.1,0,2,0.9,2,2s-0.9,2-2,2C396.9,393,396,392.1,396,391z"/>
<path fill="#444444" d="M358,389c0.6,0,1,0.4,1,1v11c0,0.6-0.4,1-1,1h-8.6l-4.4,3.1V404v-2h-3c-0.6,0-1-0.4-1-1v-11c0-0.6,0.4-1,1-1
	H358 M358,387h-16c-1.7,0-3,1.3-3,3v11c0,1.7,1.3,3,3,3h1v5l7-5h8c1.7,0,3-1.3,3-3v-11C361,388.3,359.7,387,358,387L358,387z"/>
<path fill="#444444" d="M310,392h-3v-1c0-1.7-1.3-3-3-3h-4c-1.7,0-3,1.3-3,3v1h-3c-1.7,0-3,1.3-3,3v10c0,1.7,1.3,3,3,3h16
	c1.7,0,3-1.3,3-3v-10C313,393.3,311.7,392,310,392z M307,394v12h-10v-12H307z M299,391c0-0.6,0.4-1,1-1h4c0.6,0,1,0.4,1,1v1h-6V391z
	 M293,405v-10c0-0.6,0.4-1,1-1h1v12h-1C293.4,406,293,405.6,293,405z M311,405c0,0.6-0.4,1-1,1h-1v-12h1c0.6,0,1,0.4,1,1V405z"/>
<path fill="#444444" d="M258.2,399.3c1.1-1.1,1.8-2.6,1.8-4.3v-3c0-3.3-2.7-6-6-6s-6,2.7-6,6v3c0,1.7,0.7,3.2,1.8,4.3
	c-4.6,0.7-7.8,2.6-7.8,4.7v2c0,1.7,1.3,3,3,3h18c1.7,0,3-1.3,3-3v-2C266,401.9,262.7,400,258.2,399.3z M250,395v-3c0-2.2,1.8-4,4-4
	c2.2,0,4,1.8,4,4v3c0,2.2-1.8,4-4,4C251.8,399,250,397.2,250,395z M264,406c0,0.6-0.4,1-1,1h-18c-0.6,0-1-0.4-1-1v-2
	c0-0.2,0.6-1,2.3-1.7c2-0.8,4.8-1.3,7.7-1.3c2.9,0,5.7,0.5,7.7,1.3c1.7,0.7,2.3,1.5,2.3,1.7V406z"/>
<path fill="#444444" d="M215,394c0-1.7-1.3-3-3-3h-15c-1.7,0-3,1.3-3,3v8c0,1.7,1.3,3,3,3h15c1.7,0,3-1.3,3-3c1.7,0,3-1.3,3-3v-2
	C218,395.3,216.7,394,215,394z M213,402c0,0.6-0.4,1-1,1h-15c-0.6,0-1-0.4-1-1v-8c0-0.6,0.4-1,1-1h15c0.6,0,1,0.4,1,1V402z M216,399
	c0,0.6-0.4,1-1,1v-4c0.6,0,1,0.4,1,1V399z"/>
<path fill="#444444" d="M162,391l-8-5l-8,5v19l8-5l8,5l8-5v-19L162,391z M148,406.4v-14.3l5-3.1v14.3l-0.1,0L148,406.4z M155,403.3
	V389l5.9,3.7l0.1,0V407L155,403.3L155,403.3z M168,403.9l-5,3.1v-14.3l0.1,0l4.9-3.1V403.9z"/>
<path fill="#444444" d="M110,387c-6.1,0-11,4.9-11,11s4.9,11,11,11s11-4.9,11-11S116.1,387,110,387z M111,406.9V404c0-0.6-0.4-1-1-1
	s-1,0.4-1,1v2.9c-4.2-0.5-7.5-3.8-7.9-7.9h2.9c0.6,0,1-0.4,1-1s-0.4-1-1-1h-2.9c0.5-4.2,3.8-7.5,7.9-7.9v2.9c0,0.6,0.4,1,1,1
	s1-0.4,1-1v-2.9c4.2,0.5,7.5,3.8,7.9,7.9H116c-0.6,0-1,0.4-1,1s0.4,1,1,1h2.9C118.5,403.2,115.2,406.5,111,406.9z"/>
<path fill="#444444" d="M69.9,390.1l-6.5,14.3l-1.8-6l-6-1.8L69.9,390.1 M74,386l-24,11l10,3l3,10L74,386L74,386z"/>
<path fill="#444444" d="M504,345v14c0,1.7-1.3,3-3,3h-14c-1.7,0-3-1.3-3-3v-14c0-1.7,1.3-3,3-3h4v2h-4c-0.6,0-1,0.4-1,1v14
	c0,0.6,0.4,1,1,1h14c0.6,0,1-0.4,1-1v-14c0-0.6-0.4-1-1-1h-4v-2h4C502.7,342,504,343.3,504,345z M498.7,349.3c-0.4-0.4-1-0.4-1.4,0
	l-2.3,2.3V339l0,0c0-0.6-0.4-1-1-1s-1,0.4-1,1v12.6l-2.3-2.3c-0.4-0.4-1-0.4-1.4,0c-0.4,0.4-0.4,1,0,1.4l4,4
	c0.2,0.2,0.4,0.3,0.7,0.3s0.5-0.1,0.7-0.3l4-4C499.1,350.3,499.1,349.7,498.7,349.3z"/>
<path fill="#444444" d="M436,355v-14c0-1.7,1.3-3,3-3h14c1.7,0,3,1.3,3,3v14c0,1.7-1.3,3-3,3h-4v-2h4c0.6,0,1-0.4,1-1v-14
	c0-0.6-0.4-1-1-1h-14c-0.6,0-1,0.4-1,1v14c0,0.6,0.4,1,1,1h4v2h-4C437.3,358,436,356.7,436,355z M441.3,349.7c0.4,0.4,1,0.4,1.4,0
	l2.3-2.3V361l0,0c0,0.6,0.4,1,1,1s1-0.4,1-1v-13.6l2.3,2.3c0.4,0.4,1,0.4,1.4,0c0.4-0.4,0.4-1,0-1.4l-4-4c-0.2-0.2-0.4-0.3-0.7-0.3
	s-0.5,0.1-0.7,0.3l-4,4C440.9,348.7,440.9,349.3,441.3,349.7z"/>
<path fill="#444444" d="M402.7,354.3c0.4,0.4,0.4,1,0,1.4l-3,3c-0.2,0.2-0.4,0.3-0.7,0.3s-0.5-0.1-0.7-0.3l-3-3
	c-0.4-0.4-0.4-1,0-1.4c0.4-0.4,1-0.4,1.4,0l1.3,1.3V349c0-0.6,0.4-1,1-1s1,0.4,1,1v6.6l1.3-1.3C401.7,353.9,402.3,353.9,402.7,354.3
	z M401,340c-3.9,0-7.2,2.5-8.5,6H392h0c-3.3,0-6,2.7-6,6s2.7,6,6,6c0,0,0,0,0,0h2.7l-0.9-0.9c-0.3-0.3-0.5-0.6-0.7-1
	c0,0,0-0.1,0-0.1H392c-0.6,0-1.1-0.1-1.6-0.3c-1.4-0.6-2.4-2-2.4-3.7c0-2.2,1.8-4,4-4h2.1c0.5-3.4,3.4-6,6.9-6c3.9,0,7,3.1,7,7
	c0,2.4-1.2,4.5-3,5.8c0,0.1,0,0.2,0,0.2c0,0.4-0.1,0.8-0.2,1.1c-0.2,0.4-0.4,0.7-0.7,1l-0.5,0.5c3.7-1.1,6.4-4.6,6.4-8.6
	C410,344,406,340,401,340z"/>
<path fill="#444444" d="M362,349c0,4.6-3.5,8.4-8,8.9v-2c3.4-0.5,6-3.4,6-6.9c0-3.9-3.1-7-7-7c-3.5,0-6.4,2.6-6.9,6H344
	c-2.2,0-4,1.8-4,4c0,1.7,1,3.1,2.4,3.7c0.5,0.2,1,0.3,1.6,0.3h4v2h-4c0,0,0,0,0,0c-3.3,0-6-2.7-6-6s2.7-6,6-6l0,0h0.5
	c1.2-3.5,4.6-6,8.5-6C358,340,362,344,362,349z M354.7,352.7c0.4-0.4,0.4-1,0-1.4l-3-3c-0.2-0.2-0.4-0.3-0.7-0.3s-0.5,0.1-0.7,0.3
	l-3,3c-0.4,0.4-0.4,1,0,1.4c0.4,0.4,1,0.4,1.4,0l1.3-1.3v6.6c0,0.6,0.4,1,1,1s1-0.4,1-1v-6.6l1.3,1.3
	C353.7,353.1,354.3,353.1,354.7,352.7z"/>
<path fill="#444444" d="M305,341c-3.9,0-7.2,2.5-8.5,6H296l0,0c-3.3,0-6,2.7-6,6s2.7,6,6,6c0,0,0,0,0,0h9c5,0,9-4,9-9
	C314,345,310,341,305,341z M305,357h-9c-2.2,0-4-1.8-4-4s1.8-4,4-4h2.1c0.5-3.4,3.4-6,6.9-6c3.9,0,7,3.1,7,7S308.9,357,305,357z"/>
<path fill="#444444" d="M255,339v2c0,0.6-0.4,1-1,1s-1-0.4-1-1v-2c0-0.6,0.4-1,1-1S255,338.4,255,339z M254,358c-0.6,0-1,0.4-1,1v2
	c0,0.6,0.4,1,1,1s1-0.4,1-1v-2C255,358.4,254.6,358,254,358z M245.5,341.5c-0.4,0.4-0.4,1,0,1.4l1.4,1.4c0.4,0.4,1,0.4,1.4,0
	c0.4-0.4,0.4-1,0-1.4l-1.4-1.4C246.5,341.1,245.9,341.1,245.5,341.5z M259.7,355.7c-0.4,0.4-0.4,1,0,1.4l1.4,1.4
	c0.4,0.4,1,0.4,1.4,0c0.4-0.4,0.4-1,0-1.4l-1.4-1.4C260.7,355.3,260,355.3,259.7,355.7z M242,350c0,0.6,0.4,1,1,1h2c0.6,0,1-0.4,1-1
	s-0.4-1-1-1h-2C242.4,349,242,349.4,242,350z M262,350c0,0.6,0.4,1,1,1h2c0.6,0,1-0.4,1-1s-0.4-1-1-1h-2
	C262.4,349,262,349.4,262,350z M245.5,358.5c0.4,0.4,1,0.4,1.4,0l1.4-1.4c0.4-0.4,0.4-1,0-1.4c-0.4-0.4-1-0.4-1.4,0l-1.4,1.4
	C245.1,357.5,245.1,358.1,245.5,358.5z M259.7,344.3c0.4,0.4,1,0.4,1.4,0l1.4-1.4c0.4-0.4,0.4-1,0-1.4c-0.4-0.4-1-0.4-1.4,0
	l-1.4,1.4C259.3,343.3,259.3,344,259.7,344.3z M260,350c0,3.3-2.7,6-6,6s-6-2.7-6-6s2.7-6,6-6S260,346.7,260,350z M258,350
	c0-2.2-1.8-4-4-4c-2.2,0-4,1.8-4,4s1.8,4,4,4C256.2,354,258,352.2,258,350z"/>
<path fill="#444444" d="M212.4,345.4L206,339l-6.4,6.4c-3.5,3.6-3.5,9.3,0,12.9c3.5,3.6,9.2,3.6,12.7,0
	C215.9,354.8,215.9,349,212.4,345.4z M201,356.9c-2.7-2.8-2.7-7.3,0-10l4.9-5l4.9,5c2.7,2.8,2.7,7.3,0,10
	C208.2,359.7,203.8,359.7,201,356.9z"/>
<path fill="#444444" d="M161,352.3v-10.8c0-1.9-1.6-3.5-3.5-3.5s-3.5,1.6-3.5,3.5v10.8c-1.2,1-2,2.5-2,4.2c0,3,2.5,5.5,5.5,5.5
	s5.5-2.5,5.5-5.5C163,354.8,162.2,353.3,161,352.3z M157.5,360c-1.9,0-3.5-1.6-3.5-3.5c0-1.4,0.8-2.6,2-3.2v-11.8
	c0-0.8,0.7-1.5,1.5-1.5s1.5,0.7,1.5,1.5v11.8c1.2,0.6,2,1.8,2,3.2C161,358.4,159.4,360,157.5,360z"/>
<path fill="#444444" d="M108,342.2c0,0.2,0,0.5,0,0.8c0,5,4,9,9,9c0.3,0,0.5,0,0.8,0c-0.9,3.5-4,6-7.8,6c-4.4,0-8-3.6-8-8
	C102,346.3,104.6,343.1,108,342.2 M110,340c-5.5,0-10,4.5-10,10s4.5,10,10,10c5.5,0,10-4.5,10-10c0-0.2,0-0.4,0-0.7
	c-0.9,0.4-1.9,0.7-3,0.7c-3.9,0-7-3.1-7-7c0-1.1,0.2-2.1,0.7-3C110.4,340,110.2,340,110,340L110,340z"/>
<path fill="#444444" d="M68,356c-0.6,0-1,0.4-1,1c0,1.1-0.9,2-2,2c-1.1,0-2-0.9-2-2v-6h11c0-0.7-0.1-1.4-0.2-2
	c-1-5.7-5.9-10-11.8-10s-10.9,4.3-11.8,10c-0.1,0.6-0.2,1.3-0.2,2h11v6c0,2.2,1.8,4,4,4s4-1.8,4-4C69,356.4,68.6,356,68,356z
	 M62,341c4.8,0,8.9,3.4,9.8,8H52.2C53.1,344.4,57.2,341,62,341z"/>
<path fill="#444444" d="M491.4,296.1l0.6,0.9h1.1h9c0.6,0,1,0.4,1,1v11c0,0.6-0.4,1-1,1h-16c-0.6,0-1-0.4-1-1v-14c0-0.6,0.4-1,1-1h4
	L491.4,296.1z M491,292h-5c-1.7,0-3,1.3-3,3v14c0,1.7,1.3,3,3,3h16c1.7,0,3-1.3,3-3v-11c0-1.7-1.3-3-3-3h-9L491,292L491,292z"/>
<path fill="#444444" d="M458,294v6c0,0.6-0.4,1-1,1h-6c-0.6,0-1-0.4-1-1s0.4-1,1-1h3.4c-1.3-1.3-2.4-2.4-2.7-2.6c0,0,0,0,0,0
	c-0.8-0.8-1.7-1.4-2.6-1.8c-1-0.4-2-0.6-3-0.6s-2.1,0.2-3,0.6c-1,0.4-1.9,1-2.6,1.8c-0.1,0.1-0.1,0.1-0.2,0.2
	c-0.6,0.7-1.1,1.5-1.5,2.3c-0.1,0.2-0.1,0.3-0.2,0.5c-0.2,0.5-0.8,0.8-1.3,0.6c-0.5-0.2-0.8-0.7-0.6-1.3c0.1-0.2,0.2-0.4,0.3-0.6
	c0.2-0.5,0.4-0.9,0.7-1.3c0.3-0.5,0.7-1,1.2-1.5c0.1-0.1,0.2-0.2,0.2-0.3c1-1,2.1-1.7,3.3-2.2c0.6-0.2,1.2-0.4,1.9-0.5
	c0.6-0.1,1.3-0.2,1.9-0.2s1.3,0.1,1.9,0.2c0.6,0.1,1.3,0.3,1.9,0.5c1.2,0.5,2.4,1.2,3.3,2.2l0,0c0.3,0.3,1.5,1.4,2.9,2.9V294
	c0-0.6,0.4-1,1-1S458,293.4,458,294z M435,311c0.6,0,1-0.4,1-1v-3.8c1.4,1.4,2.6,2.5,2.9,2.9l0,0c1,1,2.1,1.7,3.3,2.2
	c0.6,0.2,1.2,0.4,1.9,0.5c0.6,0.1,1.3,0.2,1.9,0.2c1.3,0,2.6-0.2,3.8-0.7c1.2-0.5,2.4-1.2,3.3-2.2c0.1-0.1,0.2-0.2,0.2-0.3
	c0.4-0.5,0.8-1,1.2-1.5c0.3-0.4,0.5-0.9,0.7-1.3c0.1-0.2,0.2-0.4,0.3-0.6c0.2-0.5-0.1-1.1-0.6-1.3c-0.5-0.2-1.1,0.1-1.3,0.6
	c-0.1,0.2-0.1,0.3-0.2,0.5c-0.8,1.9-2.4,3.5-4.4,4.3c-1,0.4-2,0.6-3,0.6s-2.1-0.2-3-0.6c-1-0.4-1.9-1-2.6-1.8c0,0,0,0,0,0
	c-0.3-0.3-1.4-1.3-2.7-2.6h3.4c0.6,0,1-0.4,1-1s-0.4-1-1-1h-6c-0.6,0-1,0.4-1,1v6C434,310.6,434.4,311,435,311z"/>
<path fill="#444444" d="M399.3,298.3c-0.8,1-1.3,2.3-1.3,3.7c0,1.4-0.4,2.7-1,3.9c-0.4,0.6-0.8,1.2-1.3,1.7
	c-1.5,1.5-3.5,2.4-5.7,2.4h-2c-0.6,0-1-0.4-1-1s0.4-1,1-1h2c1.9,0,3.6-0.9,4.7-2.3c0.8-1,1.3-2.3,1.3-3.7c0-1.4,0.4-2.7,1-3.9
	c0.4-0.6,0.8-1.2,1.3-1.7c1.5-1.5,3.5-2.4,5.7-2.4h1.6l-2.3-2.3c-0.4-0.4-0.4-1,0-1.4c0.4-0.4,1-0.4,1.4,0l4,4c0.4,0.4,0.4,1,0,1.4
	l-4,4c-0.2,0.2-0.5,0.3-0.7,0.3s-0.5-0.1-0.7-0.3c-0.4-0.4-0.4-1,0-1.4l2.3-2.3H404C402.1,296,400.4,296.9,399.3,298.3z M388,296h2
	c1.9,0,3.6,0.9,4.7,2.3c0.3-0.7,0.6-1.3,1-1.9c-1.5-1.5-3.5-2.4-5.7-2.4h-2c-0.6,0-1,0.4-1,1S387.4,296,388,296z M404.7,304.3
	c-0.4-0.4-1-0.4-1.4,0c-0.4,0.4-0.4,1,0,1.4l2.3,2.3H404c-1.9,0-3.6-0.9-4.7-2.3c-0.3,0.7-0.6,1.3-1,1.9c1.5,1.5,3.5,2.4,5.7,2.4
	h1.6l-2.3,2.3c-0.4,0.4-0.4,1,0,1.4c0.2,0.2,0.5,0.3,0.7,0.3s0.5-0.1,0.7-0.3l4-4c0.4-0.4,0.4-1,0-1.4L404.7,304.3z"/>
<path fill="#444444" d="M343.3,309.7c-0.4-0.4-0.4-1,0-1.4l6.3-6.3l-6.3-6.3c-0.4-0.4-0.4-1,0-1.4c0.4-0.4,1-0.4,1.4,0l7,7
	c0.4,0.4,0.4,1,0,1.4l-7,7c-0.2,0.2-0.5,0.3-0.7,0.3C343.7,310,343.5,309.9,343.3,309.7z M355,310c0.6,0,1-0.4,1-1v-14
	c0-0.6-0.4-1-1-1c-0.6,0-1,0.4-1,1v14C354,309.6,354.5,310,355,310z"/>
<path fill="#444444" d="M300.3,309.7c-0.4-0.4-0.4-1,0-1.4l6.3-6.3l-6.3-6.3c-0.4-0.4-0.4-1,0-1.4c0.4-0.4,1-0.4,1.4,0l7,7
	c0.4,0.4,0.4,1,0,1.4l-7,7c-0.2,0.2-0.5,0.3-0.7,0.3C300.7,310,300.5,309.9,300.3,309.7z M295,310c0.3,0,0.5-0.1,0.7-0.3l7-7
	c0.4-0.4,0.4-1,0-1.4l-7-7c-0.4-0.4-1-0.4-1.4,0s-0.4,1,0,1.4l6.3,6.3l-6.3,6.3c-0.4,0.4-0.4,1,0,1.4C294.5,309.9,294.7,310,295,310
	z"/>
<path fill="#444444" d="M260,293h-12c-1.7,0-3,1.3-3,3v12c0,1.7,1.3,3,3,3h12c1.7,0,3-1.3,3-3v-12C263,294.3,261.7,293,260,293z
	 M261,308c0,0.6-0.4,1-1,1h-12c-0.6,0-1-0.4-1-1v-12c0-0.6,0.4-1,1-1h12c0.6,0,1,0.4,1,1V308z"/>
<path fill="#444444" d="M202,293c-1.7,0-3,1.3-3,3v12c0,1.7,1.3,3,3,3s3-1.3,3-3v-12C205,294.3,203.7,293,202,293z M203,308
	c0,0.6-0.4,1-1,1s-1-0.4-1-1v-12c0-0.6,0.4-1,1-1s1,0.4,1,1V308z M210,293c-1.7,0-3,1.3-3,3v12c0,1.7,1.3,3,3,3s3-1.3,3-3v-12
	C213,294.3,211.7,293,210,293z M211,308c0,0.6-0.4,1-1,1s-1-0.4-1-1v-12c0-0.6,0.4-1,1-1s1,0.4,1,1V308z"/>
<path fill="#444444" d="M152,296.5l9.1,5.5l-9.1,5.5V296.5 M150,293v18l15-9L150,293L150,293z"/>
<path fill="#444444" d="M110,310c-0.3,0-0.5-0.1-0.7-0.3l-7-7c-0.4-0.4-0.4-1,0-1.4l7-7c0.4-0.4,1-0.4,1.4,0c0.4,0.4,0.4,1,0,1.4
	l-6.3,6.3l6.3,6.3c0.4,0.4,0.4,1,0,1.4C110.5,309.9,110.3,310,110,310z M116.7,309.7c0.4-0.4,0.4-1,0-1.4l-6.3-6.3l6.3-6.3
	c0.4-0.4,0.4-1,0-1.4c-0.4-0.4-1-0.4-1.4,0l-7,7c-0.4,0.4-0.4,1,0,1.4l7,7c0.2,0.2,0.5,0.3,0.7,0.3
	C116.3,310,116.5,309.9,116.7,309.7z"/>
<path fill="#444444" d="M67.7,294.3c0.4,0.4,0.4,1,0,1.4l-6.3,6.3l6.3,6.3c0.4,0.4,0.4,1,0,1.4c-0.4,0.4-1,0.4-1.4,0l-7-7
	c-0.4-0.4-0.4-1,0-1.4l7-7c0.2-0.2,0.5-0.3,0.7-0.3S67.5,294.1,67.7,294.3z M56,294c-0.6,0-1,0.4-1,1v14c0,0.6,0.4,1,1,1s1-0.4,1-1
	v-14C57,294.4,56.6,294,56,294z"/>
<path fill="#444444" d="M494,245c-5,0-9,4-9,9s4,9,9,9s9-4,9-9S499,245,494,245z M494,261c-3.9,0-7-3.1-7-7s3.1-7,7-7s7,3.1,7,7
	S497.9,261,494,261z"/>
<path fill="#444444" d="M454,252v2c0,4.1-3.1,7.4-7,7.9v2.1h3c0.6,0,1,0.4,1,1s-0.4,1-1,1h-8c-0.6,0-1-0.4-1-1s0.4-1,1-1h3v-2.1
	c-3.9-0.5-7-3.9-7-7.9v-2c0-0.6,0.4-1,1-1s1,0.4,1,1v2c0,3.3,2.7,6,6,6s6-2.7,6-6v-2c0-0.6,0.4-1,1-1S454,251.4,454,252z M446,242
	c-2.2,0-4,1.8-4,4v8c0,2.2,1.8,4,4,4s4-1.8,4-4v-8C450,243.8,448.2,242,446,242z M446,256c-1.1,0-2-0.9-2-2v-8c0-1.1,0.9-2,2-2
	s2,0.9,2,2v8C448,255.1,447.1,256,446,256z"/>
<path fill="#444444" d="M406,243h-16c-1.7,0-3,1.3-3,3v16c0,1.7,1.3,3,3,3h16c1.7,0,3-1.3,3-3v-16C409,244.3,407.7,243,406,243z
	 M407,262c0,0.6-0.4,1-1,1h-16c-0.6,0-1-0.4-1-1v-16c0-0.6,0.4-1,1-1h16c0.6,0,1,0.4,1,1V262z M401.5,250.5c-0.4-0.4-1-0.4-1.4,0
	l-2.1,2.1l-2.1-2.1c-0.4-0.4-1-0.4-1.4,0c-0.4,0.4-0.4,1,0,1.4l2.1,2.1l-2.1,2.1c-0.4,0.4-0.4,1,0,1.4c0.4,0.4,1,0.4,1.4,0l2.1-2.1
	l2.1,2.1c0.4,0.4,1,0.4,1.4,0c0.4-0.4,0.4-1,0-1.4l-2.1-2.1l2.1-2.1C401.9,251.5,401.9,250.9,401.5,250.5z"/>
<path fill="#444444" d="M358,243h-16c-1.7,0-3,1.3-3,3v16c0,1.7,1.3,3,3,3h16c1.7,0,3-1.3,3-3v-16C361,244.3,359.7,243,358,243z
	 M359,262c0,0.6-0.4,1-1,1h-16c-0.6,0-1-0.4-1-1v-16c0-0.6,0.4-1,1-1h16c0.6,0,1,0.4,1,1V262z M353.3,250.8l-4.2,4.2l-2.1-2.1
	c-0.4-0.4-1-0.4-1.4,0c-0.4,0.4-0.4,1,0,1.4l2.8,2.8c0.4,0.4,1,0.4,1.4,0l5-5c0.4-0.4,0.4-1,0-1.4
	C354.3,250.4,353.7,250.4,353.3,250.8z"/>
<path fill="#444444" d="M310,243h-16c-1.7,0-3,1.3-3,3v16c0,1.7,1.3,3,3,3h16c1.7,0,3-1.3,3-3v-16C313,244.3,311.7,243,310,243z
	 M311,262c0,0.6-0.4,1-1,1h-16c-0.6,0-1-0.4-1-1v-16c0-0.6,0.4-1,1-1h16c0.6,0,1,0.4,1,1V262z M306,253h-8c-0.6,0-1,0.4-1,1
	s0.4,1,1,1h8c0.6,0,1-0.4,1-1S306.6,253,306,253z"/>
<path fill="#444444" d="M262,243h-16c-1.7,0-3,1.3-3,3v16c0,1.7,1.3,3,3,3h16c1.7,0,3-1.3,3-3v-16C265,244.3,263.7,243,262,243z
	 M263,262c0,0.6-0.4,1-1,1h-16c-0.6,0-1-0.4-1-1v-16c0-0.6,0.4-1,1-1h16c0.6,0,1,0.4,1,1V262z M258,253h-3v-3c0-0.6-0.4-1-1-1
	s-1,0.4-1,1v3h-3c-0.6,0-1,0.4-1,1s0.4,1,1,1h3v3c0,0.6,0.4,1,1,1s1-0.4,1-1v-3h3c0.6,0,1-0.4,1-1S258.6,253,258,253z"/>
<path fill="#444444" d="M206,243c-6.1,0-11,4.9-11,11c0,6.1,4.9,11,11,11s11-4.9,11-11C217,247.9,212.1,243,206,243z M206,263
	c-5,0-9-4-9-9s4-9,9-9s9,4,9,9S211,263,206,263z M209.5,250.5c-0.4-0.4-1-0.4-1.4,0l-2.1,2.1l-2.1-2.1c-0.4-0.4-1-0.4-1.4,0
	c-0.4,0.4-0.4,1,0,1.4l2.1,2.1l-2.1,2.1c-0.4,0.4-0.4,1,0,1.4c0.4,0.4,1,0.4,1.4,0l2.1-2.1l2.1,2.1c0.4,0.4,1,0.4,1.4,0
	c0.4-0.4,0.4-1,0-1.4l-2.1-2.1l2.1-2.1C209.9,251.5,209.9,250.9,209.5,250.5z"/>
<path fill="#444444" d="M158,243c-6.1,0-11,4.9-11,11c0,6.1,4.9,11,11,11s11-4.9,11-11C169,247.9,164.1,243,158,243z M158,263
	c-5,0-9-4-9-9s4-9,9-9s9,4,9,9S163,263,158,263z M160.7,251.3l-3.5,3.5l-1.4-1.4c-0.4-0.4-1-0.4-1.4,0c-0.4,0.4-0.4,1,0,1.4l2.1,2.1
	c0.4,0.4,1,0.4,1.4,0l4.2-4.2c0.4-0.4,0.4-1,0-1.4C161.7,250.9,161,250.9,160.7,251.3z"/>
<path fill="#444444" d="M110,243c-6.1,0-11,4.9-11,11c0,6.1,4.9,11,11,11s11-4.9,11-11C121,247.9,116.1,243,110,243z M110,263
	c-5,0-9-4-9-9s4-9,9-9s9,4,9,9S115,263,110,263z M114,253h-8c-0.6,0-1,0.4-1,1s0.4,1,1,1h8c0.6,0,1-0.4,1-1S114.6,253,114,253z"/>
<path fill="#444444" d="M62,243c-6.1,0-11,4.9-11,11c0,6.1,4.9,11,11,11s11-4.9,11-11C73,247.9,68.1,243,62,243z M62,263
	c-5,0-9-4-9-9s4-9,9-9s9,4,9,9S67,263,62,263z M66,253h-3v-3c0-0.6-0.4-1-1-1s-1,0.4-1,1v3h-3c-0.6,0-1,0.4-1,1s0.4,1,1,1h3v3
	c0,0.6,0.4,1,1,1s1-0.4,1-1v-3h3c0.6,0,1-0.4,1-1S66.6,253,66,253z"/>
<path fill="#444444" d="M495,203.2h-9.6l4.7-4.6c0.4-0.4,0.4-1,0-1.4c-0.4-0.4-1-0.4-1.4,0l-6.4,6.2c-0.4,0.4-0.4,1,0,1.4l6.4,6.2
	c0.4,0.4,1,0.4,1.4,0c0.4-0.4,0.4-1,0-1.4l-4.7-4.6h9.6c3.9,0,7,3.1,7,6.9v1c0,0.5,0.4,1,1,1c0.6,0,1-0.4,1-1v-1
	C504,207.2,500,203.2,495,203.2z"/>
<path fill="#444444" d="M456.7,215.3l-5.7-5.7c1.2-1.5,2-3.5,2-5.6c0-5-4-9-9-9c-5,0-9,4-9,9s4,9,9,9c2.1,0,4.1-0.7,5.6-2l5.7,5.7
	c0.2,0.2,0.5,0.3,0.7,0.3s0.5-0.1,0.7-0.3C457.1,216.3,457.1,215.7,456.7,215.3z M444,211c-3.9,0-7-3.1-7-7s3.1-7,7-7s7,3.1,7,7
	S447.9,211,444,211z M448,204c0,0.6-0.4,1-1,1h-6c-0.6,0-1-0.4-1-1s0.4-1,1-1h6C447.6,203,448,203.4,448,204z"/>
<path fill="#444444" d="M408.7,215.3l-5.7-5.7c1.2-1.5,2-3.5,2-5.6c0-5-4-9-9-9c-5,0-9,4-9,9s4,9,9,9c2.1,0,4.1-0.7,5.6-2l5.7,5.7
	c0.2,0.2,0.5,0.3,0.7,0.3s0.5-0.1,0.7-0.3C409.1,216.3,409.1,215.7,408.7,215.3z M396,211c-3.9,0-7-3.1-7-7s3.1-7,7-7s7,3.1,7,7
	S399.9,211,396,211z M400,204c0,0.6-0.4,1-1,1h-2v2c0,0.6-0.4,1-1,1c-0.6,0-1-0.4-1-1v-2h-2c-0.6,0-1-0.4-1-1s0.4-1,1-1h2v-2
	c0-0.6,0.4-1,1-1c0.6,0,1,0.4,1,1v2h2C399.6,203,400,203.4,400,204z"/>
<path fill="#444444" d="M360.7,215.3l-5.7-5.7c1.2-1.5,2-3.5,2-5.6c0-5-4-9-9-9c-5,0-9,4-9,9s4,9,9,9c2.1,0,4.1-0.7,5.6-2l5.7,5.7
	c0.2,0.2,0.5,0.3,0.7,0.3s0.5-0.1,0.7-0.3C361.1,216.3,361.1,215.7,360.7,215.3z M348,211c-3.9,0-7-3.1-7-7s3.1-7,7-7s7,3.1,7,7
	S351.9,211,348,211z"/>
<path fill="#444444" d="M304,216h-9c-0.6,0-1-0.4-1-1v-2v-12v-2.8c-1.2,0.4-2,1.5-2,2.8v14c0,1.7,1.3,3,3,3h10c1.3,0,2.4-0.8,2.8-2
	H305H304z M309,194h-10c-1.7,0-3,1.3-3,3v14c0,1.7,1.3,3,3,3h10c1.7,0,3-1.3,3-3v-14C312,195.3,310.7,194,309,194z M310,211
	c0,0.6-0.4,1-1,1h-10c-0.6,0-1-0.4-1-1v-14c0-0.6,0.4-1,1-1h10c0.6,0,1,0.4,1,1V211z"/>
<path fill="#444444" d="M261,194h-14c-1.7,0-3,1.3-3,3v18c0,1.7,1.3,3,3,3h14c1.7,0,3-1.3,3-3v-18C264,195.3,262.7,194,261,194z
	 M262,215c0,0.6-0.4,1-1,1h-14c-0.6,0-1-0.4-1-1v-18c0-0.6,0.4-1,1-1h14c0.6,0,1,0.4,1,1V215z M258,211h-8c-0.6,0-1,0.4-1,1
	s0.4,1,1,1h8c0.6,0,1-0.4,1-1S258.6,211,258,211z M258,207h-8c-0.6,0-1,0.4-1,1s0.4,1,1,1h8c0.6,0,1-0.4,1-1S258.6,207,258,207z
	 M258,203h-8c-0.6,0-1,0.4-1,1s0.4,1,1,1h8c0.6,0,1-0.4,1-1S258.6,203,258,203z M250,201h4c0.6,0,1-0.4,1-1s-0.4-1-1-1h-4
	c-0.6,0-1,0.4-1,1S249.4,201,250,201z"/>
<path fill="#444444" d="M198,213v-12.8c-1.2,0.4-2,1.5-2,2.8v10c0,1.7,1.3,3,3,3h10c1.3,0,2.4-0.8,2.8-2H199
	C198.4,214,198,213.6,198,213z M213,196h-10c-1.7,0-3,1.3-3,3v10c0,1.7,1.3,3,3,3h10c1.7,0,3-1.3,3-3v-10
	C216,197.3,214.7,196,213,196z M214,209c0,0.6-0.4,1-1,1h-10c-0.6,0-1-0.4-1-1v-10c0-0.6,0.4-1,1-1h10c0.6,0,1,0.4,1,1V209z"/>
<path fill="#444444" d="M166,195h-9c-1.7,0-3,1.3-3,3v4h-4c-1.7,0-3,1.3-3,3v9c0,1.7,1.3,3,3,3h9c1.7,0,3-1.3,3-3v-4h4
	c1.7,0,3-1.3,3-3v-9C169,196.3,167.7,195,166,195z M160,214c0,0.6-0.4,1-1,1h-9c-0.6,0-1-0.4-1-1v-9c0-0.6,0.4-1,1-1h4v3
	c0,1.7,1.3,3,3,3h3V214z M167,207c0,0.6-0.4,1-1,1h-9c-0.6,0-1-0.4-1-1v-9c0-0.6,0.4-1,1-1h9c0.6,0,1,0.4,1,1V207z"/>
<path fill="#444444" d="M110,213.7l-9.8-5l-2.2,1.2l12,6.1l12-6.1l-2.2-1.2L110,213.7z M110,209.3l-9.8-5l-2.2,1.2l12,6.1l12-6.1
	l-2.2-1.2L110,209.3z M122,201.1l-12-6.1l-12,6.1l12,6.1L122,201.1z M110,197.3l7.5,3.9L110,205l-7.5-3.9L110,197.3z"/>
<path fill="#444444" d="M55,195c-1.7,0-3,1.3-3,3v16c0,1.7,1.3,3,3,3h16v-22H55z M69,215H55c-0.6,0-1-0.4-1-1s0.4-1,1-1h14V215z
	 M69,211H55c-0.4,0-0.7,0.1-1,0.2V198c0-0.6,0.4-1,1-1h14V211z"/>
<path fill="#444444" d="M504,152c0-0.6-0.4-1-1-1h-18c-0.6,0-1,0.4-1,1s0.4,1,1,1h18C503.6,153,504,152.6,504,152z M504,156
	c0-0.6-0.4-1-1-1h-14c-0.6,0-1,0.4-1,1s0.4,1,1,1h14C503.6,157,504,156.6,504,156z M484,160c0,0.6,0.4,1,1,1h18c0.6,0,1-0.4,1-1
	s-0.4-1-1-1h-18C484.4,159,484,159.4,484,160z M488,164c0,0.6,0.4,1,1,1h14c0.6,0,1-0.4,1-1s-0.4-1-1-1h-14
	C488.4,163,488,163.4,488,164z"/>
<path fill="#444444" d="M437,153h18c0.6,0,1-0.4,1-1s-0.4-1-1-1h-18c-0.6,0-1,0.4-1,1S436.4,153,437,153z M439,155c-0.6,0-1,0.4-1,1
	s0.4,1,1,1h14c0.6,0,1-0.4,1-1s-0.4-1-1-1H439z M455,159h-18c-0.6,0-1,0.4-1,1s0.4,1,1,1h18c0.6,0,1-0.4,1-1S455.6,159,455,159z
	 M453,163h-14c-0.6,0-1,0.4-1,1s0.4,1,1,1h14c0.6,0,1-0.4,1-1S453.6,163,453,163z"/>
<path fill="#444444" d="M389,153h18c0.6,0,1-0.4,1-1s-0.4-1-1-1h-18c-0.6,0-1,0.4-1,1S388.4,153,389,153z M389,157h14
	c0.6,0,1-0.4,1-1s-0.4-1-1-1h-14c-0.6,0-1,0.4-1,1S388.4,157,389,157z M407,159h-18c-0.6,0-1,0.4-1,1s0.4,1,1,1h18c0.6,0,1-0.4,1-1
	S407.6,159,407,159z M403,163h-14c-0.6,0-1,0.4-1,1s0.4,1,1,1h14c0.6,0,1-0.4,1-1S403.6,163,403,163z"/>
<path fill="#444444" d="M341,153h18c0.6,0,1-0.4,1-1s-0.4-1-1-1h-18c-0.6,0-1,0.4-1,1S340.4,153,341,153z M359,155h-18
	c-0.6,0-1,0.4-1,1s0.4,1,1,1h18c0.6,0,1-0.4,1-1S359.6,155,359,155z M359,159h-18c-0.6,0-1,0.4-1,1s0.4,1,1,1h18c0.6,0,1-0.4,1-1
	S359.6,159,359,159z M359,163h-18c-0.6,0-1,0.4-1,1s0.4,1,1,1h18c0.6,0,1-0.4,1-1S359.6,163,359,163z"/>
<path fill="#444444" d="M309,147h-9c-3.3,0-6,2.7-6,6s2.7,6,6,6h4v9c0,0.6,0.4,1,1,1s1-0.4,1-1v-9v-2v-8h2v19c0,0.6,0.4,1,1,1
	s1-0.4,1-1v-20C310,147.4,309.6,147,309,147z M296,153c0-2.2,1.8-4,4-4h4v8h-4C297.8,157,296,155.2,296,153z"/>
<path fill="#444444" d="M263.2,149.7c-2.3-2.3-6.1-2.3-8.4,0l-1.4,1.4l-1.4-1.4c-2.3-2.3-6.1-2.3-8.4,0c-2.3,2.3-2.3,6.1,0,8.4
	l1.4,1.4l8.4,8.4l8.4-8.4l1.4-1.4C265.5,155.8,265.5,152.1,263.2,149.7z M259.1,159.6l-5.6,5.6l-5.6-5.6l-2.8-2.8
	c-1.5-1.6-1.5-4.1,0-5.6c1.5-1.6,4-1.6,5.6,0l2.8,2.8l2.8-2.8c1.5-1.6,4-1.6,5.6,0c1.5,1.6,1.5,4.1,0,5.6L259.1,159.6z"/>
<path fill="#444444" d="M215,161c1.7,0,3-1.3,3-3s-1.3-3-3-3h-0.5c-0.1-0.3-0.2-0.6-0.4-0.9l0.4-0.4c1.2-1.2,1.2-3.1,0-4.2
	c-1.2-1.2-3.1-1.2-4.2,0l-0.4,0.4c-0.3-0.1-0.6-0.3-0.9-0.4V149c0-1.7-1.3-3-3-3s-3,1.3-3,3v0.5c-0.3,0.1-0.6,0.2-0.9,0.4l-0.4-0.4
	c-1.2-1.2-3.1-1.2-4.2,0c-1.2,1.2-1.2,3.1,0,4.2l0.4,0.4c-0.1,0.3-0.3,0.6-0.4,0.9H197c-1.7,0-3,1.3-3,3s1.3,3,3,3h0.5
	c0.1,0.3,0.2,0.6,0.4,0.9l-0.4,0.4c-1.2,1.2-1.2,3.1,0,4.2c1.2,1.2,3.1,1.2,4.2,0l0.4-0.4c0.3,0.1,0.6,0.3,0.9,0.4v0.5
	c0,1.7,1.3,3,3,3s3-1.3,3-3v-0.5c0.3-0.1,0.6-0.2,0.9-0.4l0.4,0.4c1.2,1.2,3.1,1.2,4.2,0c1.2-1.2,1.2-3.1,0-4.2l-0.4-0.4
	c0.1-0.3,0.3-0.6,0.4-0.9H215z M212.9,159c-0.2,1.2-0.6,2.3-1.3,3.2l1.4,1.4l0,0c0.4,0.4,0.4,1,0,1.4s-1,0.4-1.4,0l0,0l-1.4-1.4
	c-0.9,0.7-2,1.2-3.2,1.3v2.1c0,0.6-0.4,1-1,1s-1-0.4-1-1v-2.1c-1.2-0.2-2.3-0.6-3.2-1.3l-1.4,1.4l0,0c-0.4,0.4-1,0.4-1.4,0
	s-0.4-1,0-1.4l0,0l1.4-1.4c-0.7-0.9-1.2-2-1.3-3.2H197c-0.6,0-1-0.4-1-1s0.4-1,1-1h2.1c0.2-1.2,0.6-2.3,1.3-3.2l-1.4-1.4l0,0
	c-0.4-0.4-0.4-1,0-1.4s1-0.4,1.4,0l0,0l1.4,1.4c0.9-0.7,2-1.2,3.2-1.3V149c0-0.6,0.4-1,1-1s1,0.4,1,1v2.1c1.2,0.2,2.3,0.6,3.2,1.3
	l1.4-1.4l0,0c0.4-0.4,1-0.4,1.4,0s0.4,1,0,1.4l0,0l-1.4,1.4c0.7,0.9,1.2,2,1.3,3.2h2.1c0.6,0,1,0.4,1,1s-0.4,1-1,1H212.9z M206,154
	c-2.2,0-4,1.8-4,4s1.8,4,4,4s4-1.8,4-4S208.2,154,206,154z M206,160c-1.1,0-2-0.9-2-2c0-1.1,0.9-2,2-2s2,0.9,2,2
	C208,159.1,207.1,160,206,160z"/>
<path fill="#444444" d="M158,147c-5.3,0-11,1.3-11,4v14c0,2.7,5.7,4,11,4s11-1.3,11-4v-14C169,148.3,163.3,147,158,147z M158,149
	c5.8,0,8.8,1.4,9,2c-0.2,0.6-3.2,2-9,2s-8.8-1.4-9-2C149.2,150.4,152.2,149,158,149z M149,153.4c2.1,1.1,5.6,1.6,9,1.6
	s6.9-0.5,9-1.6l0,4.6c-0.2,0.6-3.2,2-9,2c-5.9,0-8.8-1.5-9-2V153.4L149,153.4z M158,167c-5.9,0-8.8-1.5-9-2v-4.6
	c2.1,1.1,5.6,1.6,9,1.6s6.9-0.5,9-1.6v4.6C166.8,165.5,163.9,167,158,167z"/>
<path fill="#444444" d="M118,148h-16c-1.7,0-3,1.3-3,3v10c0,1.7,1.3,3,3,3h7v2h-3c-0.6,0-1,0.4-1,1s0.4,1,1,1h8c0.6,0,1-0.4,1-1
	s-0.4-1-1-1h-3v-2h7c1.7,0,3-1.3,3-3v-10C121,149.3,119.7,148,118,148z M119,161c0,0.6-0.4,1-1,1h-16c-0.6,0-1-0.4-1-1v-10
	c0-0.6,0.4-1,1-1h16c0.6,0,1,0.4,1,1V161z"/>
<path fill="#444444" d="M70,156h-2v-5c0-1.7-1.3-3-3-3h-6c-1.7,0-3,1.3-3,3v5h-2c-1.7,0-3,1.3-3,3v4c0,1.7,1.3,3,3,3h2.2
	c0.4,1.2,1.5,2,2.8,2h6c1.3,0,2.4-0.8,2.8-2H70c1.7,0,3-1.3,3-3v-4C73,157.3,71.7,156,70,156z M58,151c0-0.6,0.4-1,1-1h6
	c0.6,0,1,0.4,1,1v5h-8V151z M65,166h-6c-0.6,0-1-0.4-1-1s0.4-1,1-1h6c0.6,0,1,0.4,1,1S65.6,166,65,166z M71,163c0,0.6-0.4,1-1,1
	h-2.2c-0.4-1.2-1.5-2-2.8-2h-6c-1.3,0-2.4,0.8-2.8,2H54c-0.6,0-1-0.4-1-1v-4c0-0.6,0.4-1,1-1h16c0.6,0,1,0.4,1,1V163z"/>
<path fill="#444444" d="M494,99c-6.1,0-11,4.9-11,11s4.9,11,11,11s11-4.9,11-11S500.1,99,494,99z M494,119c-5,0-9-4-9-9s4-9,9-9
	s9,4,9,9S499,119,494,119z M494,106c-2.2,0-4,1.8-4,4s1.8,4,4,4s4-1.8,4-4S496.2,106,494,106z M494,112c-1.1,0-2-0.9-2-2
	c0-1.1,0.9-2,2-2s2,0.9,2,2C496,111.1,495.1,112,494,112z"/>
<path fill="#444444" d="M451,107.8V106c0-1.7-1.3-3-3-3h-11c-1.7,0-3,1.3-3,3v8c0,1.7,1.3,3,3,3h11c1.7,0,3-1.3,3-3v-1.8l7,3.8v-12
	L451,107.8z M449,114c0,0.6-0.4,1-1,1h-11c-0.6,0-1-0.4-1-1v-8c0-0.6,0.4-1,1-1h11c0.6,0,1,0.4,1,1V114z M456,112.6l-4.8-2.6
	l4.8-2.6V112.6z"/>
<path fill="#444444" d="M407,103h-3l-2-3h-8l-2,3h-3c-1.7,0-3,1.4-3,3v11c0,1.7,1.3,3,3,3h18c1.7,0,3-1.3,3-3v-11
	C410,104.4,408.7,103,407,103z M408,117c0,0.6-0.4,1-1,1h-18c-0.6,0-1-0.4-1-1v-11c0-0.6,0.4-1,1-1h4.1l2-3h5.9l2,3h4.1
	c0.5,0,1,0.5,1,1V117z M398,106c-2.8,0-5,2.2-5,5s2.2,5,5,5s5-2.2,5-5S400.8,106,398,106z M398,114c-1.7,0-3-1.3-3-3s1.3-3,3-3
	c1.7,0,3,1.3,3,3S399.7,114,398,114z"/>
<path fill="#444444" d="M344,120h12l-6-8L344,120z M348,118l2-2.7l2,2.7H348z M358,100h-16c-1.7,0-3,1.3-3,3v10c0,1.7,1.3,3,3,3h2.5
	l1.5-2h-4c-0.6,0-1-0.4-1-1v-10c0-0.6,0.4-1,1-1h16c0.6,0,1,0.4,1,1v10c0,0.6-0.4,1-1,1h-4l1.5,2h2.5c1.7,0,3-1.3,3-3v-10
	C361,101.3,359.7,100,358,100z"/>
<path fill="#444444" d="M308,103.3V101c0-1.7-1.3-3-3-3h-6c-1.7,0-3,1.3-3,3v2.3c-1.8,1.6-3,4-3,6.7s1.2,5.1,3,6.7v2.3
	c0,1.7,1.3,3,3,3h6c1.7,0,3-1.3,3-3v-2.3c1.8-1.6,3-4,3-6.7S309.8,104.9,308,103.3z M298,101c0-0.6,0.4-1,1-1h6c0.6,0,1,0.4,1,1v0.9
	c-1.2-0.6-2.6-0.9-4-0.9s-2.8,0.3-4,0.9V101z M306,119c0,0.6-0.4,1-1,1h-6c-0.6,0-1-0.4-1-1v-0.9c1.2,0.6,2.6,0.9,4,0.9
	s2.8-0.3,4-0.9V119z M302,117c-3.9,0-7-3.1-7-7s3.1-7,7-7s7,3.1,7,7S305.9,117,302,117z M304,113c-0.3,0-0.5-0.1-0.7-0.3l-2-2
	c-0.2-0.2-0.3-0.4-0.3-0.7v-4c0-0.6,0.4-1,1-1s1,0.4,1,1v3.6l1.7,1.7c0.4,0.4,0.4,1,0,1.4C304.5,112.9,304.3,113,304,113z"/>
<path fill="#444444" d="M254,99c-6.1,0-11,4.9-11,11s4.9,11,11,11c6.1,0,11-4.9,11-11S260.1,99,254,99z M254,119c-5,0-9-4-9-9
	c0-5,4-9,9-9s9,4,9,9C263,115,259,119,254,119z M257.7,112.3c0.4,0.4,0.4,1,0,1.4c-0.2,0.2-0.5,0.3-0.7,0.3s-0.5-0.1-0.7-0.3l-3-3
	c-0.2-0.2-0.3-0.4-0.3-0.7v-6c0-0.6,0.4-1,1-1s1,0.4,1,1v5.6L257.7,112.3z"/>
<path fill="#444444" d="M212,101h-1.2c-0.4-1.2-1.5-2-2.8-2h-4c-1.3,0-2.4,0.8-2.8,2H200c-1.7,0-3,1.3-3,3v14c0,1.7,1.3,3,3,3h12
	c1.7,0,3-1.3,3-3v-14C215,102.3,213.7,101,212,101z M204,101h4c0.6,0,1,0.4,1,1s-0.4,1-1,1h-4c-0.6,0-1-0.4-1-1S203.4,101,204,101z
	 M213,118c0,0.6-0.4,1-1,1h-12c-0.6,0-1-0.4-1-1v-14c0-0.6,0.4-1,1-1h1.2c0.4,1.2,1.5,2,2.8,2h4c1.3,0,2.4-0.8,2.8-2h1.2
	c0.6,0,1,0.4,1,1V118z"/>
<path fill="#444444" d="M158,99c-6.1,0-11,4.9-11,11s4.9,11,11,11s11-4.9,11-11S164.1,99,158,99z M158,119c-5,0-9-4-9-9s4-9,9-9
	s9,4,9,9S163,119,158,119z M158,103c-3.9,0-7,3.1-7,7s3.1,7,7,7s7-3.1,7-7S161.9,103,158,103z M158,115c-2.8,0-5-2.2-5-5s2.2-5,5-5
	s5,2.2,5,5S160.8,115,158,115z M158,107c-1.7,0-3,1.3-3,3s1.3,3,3,3s3-1.3,3-3S159.7,107,158,107z M158,111c-0.6,0-1-0.4-1-1
	s0.4-1,1-1s1,0.4,1,1S158.6,111,158,111z"/>
<path fill="#444444" d="M112,115.1c-1.6-0.9-3.5-0.9-5,0c-0.5,0.3-0.6,0.9-0.4,1.4c0.3,0.5,0.9,0.7,1.4,0.4c0.9-0.6,2.1-0.6,3,0
	c0.4,0.2,0.9,0.2,1.2-0.2c0.1-0.1,0.1-0.1,0.2-0.2C112.6,116,112.5,115.4,112,115.1z M102.6,110.7c-0.4,0.4-0.5,1-0.1,1.5
	s1,0.5,1.4,0.1c3.3-2.8,8-2.8,11.3,0c0.4,0.3,1,0.3,1.3-0.1c0,0,0,0,0.1-0.1c0.3-0.4,0.3-1.1-0.1-1.5
	C112.4,107.3,106.6,107.3,102.6,110.7z M120.7,106.4c-6.4-5.9-16-5.9-22.3,0c-0.4,0.4-0.4,1-0.1,1.5c0.4,0.4,1,0.5,1.4,0.1
	c5.6-5.2,14.1-5.2,19.7,0c0.4,0.4,1,0.3,1.4,0c0,0,0,0,0,0C121.1,107.4,121.1,106.7,120.7,106.4z"/>
<path fill="#444444" d="M70,99H54c-1.7,0-3,1.3-3,3v16c0,1.7,1.3,3,3,3h16c1.7,0,3-1.3,3-3v-16C73,100.3,71.7,99,70,99z M71,118
	c0,0.6-0.4,1-1,1H57.4l8.6-8.6l5,5V118z M71,112.6l-5-5L54.6,119H54c-0.6,0-1-0.4-1-1v-16c0-0.6,0.4-1,1-1h16c0.6,0,1,0.4,1,1V112.6
	z M58,103c-1.7,0-3,1.3-3,3s1.3,3,3,3c1.7,0,3-1.3,3-3S59.7,103,58,103z M58,107c-0.6,0-1-0.4-1-1s0.4-1,1-1s1,0.4,1,1
	S58.6,107,58,107z"/>
<path fill="#444444" d="M499,53c0.6,0,1,0.4,1,1v15l-4.8-3.6l-1.2-0.9l-1.2,0.9L488,69V54c0-0.6,0.4-1,1-1H499 M499,51h-10
	c-1.7,0-3,1.3-3,3v19l8-6l8,6V54C502,52.3,500.7,51,499,51L499,51z"/>
<path fill="#444444" d="M454,61h-12v-4c0-2.2,1.8-4,4-4s4,1.8,4,4v1c0,0.6,0.4,1,1,1s1-0.4,1-1v-1c0-3.3-2.7-6-6-6s-6,2.7-6,6v4h-2
	c-1.7,0-3,1.3-3,3v6c0,1.7,1.3,3,3,3h16c1.7,0,3-1.3,3-3v-6C457,62.3,455.7,61,454,61z M455,70c0,0.6-0.4,1-1,1h-16
	c-0.6,0-1-0.4-1-1v-6c0-0.6,0.4-1,1-1h16c0.6,0,1,0.4,1,1V70z"/>
<path fill="#444444" d="M406,61h-2v-4c0-3.3-2.7-6-6-6s-6,2.7-6,6v4h-2c-1.7,0-3,1.3-3,3v6c0,1.7,1.3,3,3,3h16c1.7,0,3-1.3,3-3v-6
	C409,62.3,407.7,61,406,61z M394,57c0-2.2,1.8-4,4-4s4,1.8,4,4v4h-8V57z M407,70c0,0.6-0.4,1-1,1h-16c-0.6,0-1-0.4-1-1v-6
	c0-0.6,0.4-1,1-1h16c0.6,0,1,0.4,1,1V70z"/>
<path fill="#444444" d="M362,69c-2-2-3-5-4-10c-0.9-4.3-3.6-8-8-8s-7.1,3.7-8,8c-1,5-2,8-4,10h9.2c-0.1,0.3-0.2,0.6-0.2,1
	c0,1.7,1.3,3,3,3s3-1.3,3-3c0-0.4-0.1-0.7-0.2-1H362z M344,59.4c0.3-1.5,1.6-6.4,6-6.4s5.7,4.9,6,6.4c0.6,3.1,1.3,5.6,2.2,7.6h-16.5
	C342.7,65,343.3,62.5,344,59.4z M351,70c0,0.6-0.4,1-1,1s-1-0.4-1-1c0-0.6,0.4-1,1-1S351,69.4,351,70z"/>
<path fill="#444444" d="M304,68c0.2,0,0.3,0,0.5,0c-0.1,0.1-0.2,0.2-0.2,0.3l-3,3c-2.3,2.3-6.1,2.3-8.5,0c-2.3-2.3-2.3-6.1,0-8.5
	l3-3c0.1-0.1,0.2-0.2,0.3-0.2c1.8-1.6,4.4-1.9,6.6-0.9c0.6,0.3,1.2,0.7,1.7,1.2s0.9,1.1,1.2,1.7c-0.4,0.4-0.9,0.6-1.4,0.6
	c-0.2,0-0.4,0-0.6-0.1c-0.2-0.3-0.4-0.5-0.6-0.7c-0.2-0.2-0.5-0.4-0.7-0.6c-1.5-0.9-3.6-0.7-4.9,0.6l-0.9,0.9l-2.1,2.1
	c-1.6,1.6-1.6,4.1,0,5.6s4.1,1.6,5.6,0l2.1-2.1C302.6,67.9,303.3,68,304,68z M311.2,52.8c-2.3-2.3-6.1-2.3-8.5,0l-3,3
	c-0.1,0.1-0.2,0.2-0.2,0.3c0.2,0,0.3,0,0.5,0c0.7,0,1.4,0.1,2.1,0.3l2.1-2.1c1.6-1.6,4.1-1.6,5.6,0s1.6,4.1,0,5.6l-2.1,2.1l-0.9,0.9
	c-1.3,1.3-3.4,1.5-4.9,0.6c-0.3-0.2-0.5-0.4-0.7-0.6c-0.2-0.2-0.4-0.5-0.6-0.7c-0.2-0.1-0.4-0.1-0.6-0.1c-0.6,0-1.1,0.2-1.4,0.6
	c0.3,0.6,0.7,1.2,1.2,1.7c0.5,0.5,1.1,0.9,1.7,1.2c2.1,1,4.7,0.7,6.6-0.9c0.1-0.1,0.2-0.2,0.3-0.2l3-3
	C313.6,58.9,313.6,55.1,311.2,52.8z"/>
<path fill="#444444" d="M262,51h-16c-1.7,0-3,1.3-3,3v16c0,1.7,1.3,3,3,3h16c1.7,0,3-1.3,3-3V54C265,52.3,263.7,51,262,51z M246,53
	h16c0.6,0,1,0.4,1,1v3h-18v-3C245,53.4,245.4,53,246,53z M245,70V59h5v12h-4C245.4,71,245,70.6,245,70z M262,71h-10V59h11v11
	C263,70.6,262.6,71,262,71z"/>
<path fill="#444444" d="M210,54h-8c-4.4,0-8,3.6-8,8s3.6,8,8,8h8c4.4,0,8-3.6,8-8S214.4,54,210,54z M210,68h-8c-3.3,0-6-2.7-6-6
	c0-3.3,2.7-6,6-6h8c3.3,0,6,2.7,6,6C216,65.3,213.3,68,210,68z M202,58c-2.2,0-4,1.8-4,4s1.8,4,4,4s4-1.8,4-4S204.2,58,202,58z
	 M202,64c-1.1,0-2-0.9-2-2s0.9-2,2-2s2,0.9,2,2S203.1,64,202,64z"/>
<path fill="#444444" d="M166,53h-16c-1.7,0-3,1.3-3,3v12c0,1.7,1.3,3,3,3h16c1.7,0,3-1.3,3-3V56C169,54.3,167.7,53,166,53z M166,55
	c0.1,0,0.2,0,0.3,0.1l-8.3,6.7l-8.3-6.7c0.1,0,0.2-0.1,0.3-0.1H166z M166,69h-16c-0.6,0-1-0.4-1-1V57.1l8.4,6.7
	c0.2,0.1,0.4,0.2,0.6,0.2s0.4-0.1,0.6-0.2l8.4-6.7V68C167,68.6,166.6,69,166,69z"/>
<path fill="#444444" d="M105.9,73c-0.9,0-1.8-0.2-2.6-0.5c-0.9-0.4-1.6-0.9-2.3-1.6c-0.7-0.7-1.2-1.5-1.5-2.4
	c-0.3-0.9-0.5-1.8-0.5-2.7c0-0.9,0.2-1.8,0.5-2.7c0.3-0.9,0.9-1.7,1.5-2.4l0,0l9-9.4c0.5-0.5,1-0.9,1.6-1.1c0.6-0.2,1.2-0.4,1.8-0.4
	c0.6,0,1.3,0.1,1.8,0.4c0.6,0.3,1.2,0.6,1.6,1.1c0.5,0.5,0.8,1,1.1,1.7c0.2,0.6,0.4,1.3,0.4,1.9c0,0.7-0.1,1.3-0.4,1.9
	c-0.2,0.6-0.6,1.2-1.1,1.7l-9,9.4c-0.3,0.3-0.6,0.5-1,0.7c-0.4,0.1-0.7,0.2-1.1,0.2c-0.4,0-0.8-0.1-1.1-0.2c-0.4-0.2-0.7-0.4-1-0.7
	c-0.3-0.3-0.5-0.6-0.6-1c-0.1-0.4-0.2-0.8-0.2-1.2c0-0.4,0.1-0.8,0.2-1.1c0.1-0.4,0.4-0.7,0.6-1l8.3-8.6c0.4-0.4,1-0.4,1.4,0
	c0.4,0.4,0.4,1,0,1.4l-8.3,8.6c-0.2,0.2-0.3,0.4-0.3,0.7c0,0.3,0.1,0.5,0.3,0.7c0.2,0.2,0.4,0.3,0.7,0.3c0.3,0,0.5-0.1,0.7-0.3
	l9-9.4c0.6-0.6,0.9-1.3,0.9-2.2c0-0.8-0.3-1.6-0.9-2.2c-0.6-0.6-1.3-0.9-2.1-0.9s-1.5,0.3-2.1,0.9l0,0l-9,9.4
	c-0.5,0.5-0.8,1.1-1.1,1.7c-0.2,0.6-0.4,1.3-0.4,1.9c0,0.7,0.1,1.3,0.4,1.9c0.2,0.6,0.6,1.2,1.1,1.7c0.5,0.5,1,0.9,1.6,1.1
	c0.6,0.2,1.2,0.4,1.8,0.4c0.6,0,1.3-0.1,1.8-0.4c0.6-0.3,1.2-0.6,1.6-1.1l9-9.4c0.4-0.4,1-0.4,1.4,0c0.4,0.4,0.4,1,0,1.4l-9,9.4
	c-0.7,0.7-1.4,1.2-2.3,1.6C107.6,72.8,106.7,73,105.9,73z"/>
<path fill="#444444" d="M62,71c-8,0-12-9-12-9s4-9,12-9s12,9,12,9S70,71,62,71z M62,55c-5.3,0-8.6,5-9.7,7c1.1,2,4.5,7,9.7,7
	c5.3,0,8.6-5,9.7-7C70.6,60,67.3,55,62,55z M62,66c-2.2,0-4-1.8-4-4s1.8-4,4-4s4,1.8,4,4S64.2,66,62,66z M62,60c-1.1,0-2,0.9-2,2
	s0.9,2,2,2s2-0.9,2-2S63.1,60,62,60z"/>
</svg>
